<?xml version="1.0" encoding="UTF-8"?>
<svg id="Layer_2" data-name="Layer 2" xmlns="http://www.w3.org/2000/svg" viewBox="0 0 139.34 398.59">
  <defs>
    <style>
      .cls-1 {
        fill: #ff9e7e;
      }

      .cls-2 {
        fill: #ff876d;
      }

      .cls-3 {
        stroke: #9e5d43;
        stroke-linecap: round;
        stroke-linejoin: round;
      }

      .cls-3, .cls-4 {
        fill: none;
      }

      .cls-5 {
        fill: #d58960;
      }

      .cls-6 {
        fill: #282828;
      }

      .cls-7 {
        fill: #b16953;
      }

      .cls-8 {
        fill: #e2e5e5;
      }

      .cls-9 {
        fill: #f9f9f9;
      }

      .cls-10 {
        fill: #efefef;
      }

      .cls-4 {
        stroke: #dbdbdb;
        stroke-miterlimit: 23.8;
        stroke-width: 2.38px;
      }

      .cls-11 {
        fill: #f0eeee;
      }
    </style>
  </defs>
  <g id="Layer_1-2" data-name="Layer 1">
    <g>
      <g>
        <g id="FlashAICB_1_Layer_1_Clip_Group_0_0_Layer2_1_FILL" data-name="FlashAICB 1 Layer 1  Clip Group  0 0 Layer2 1 FILL">
          <path class="cls-2" d="M82.1,112.03c-2.12,.83-4.23,1.5-6.32,1.99-6.77,1.6-12.37,1.28-16.79-.97-4.44-2.26-6.36-3.78-5.73-4.55,.21-.25,.64-.4,1.31-.47l.97-.03,3.52-17.79,23.21-6.64,2.34,27.35-2.49,1.09Z"/>
        </g>
        <g id="FlashAICB_1_Layer_1_Clip_Group_0_0_Layer2_2_FILL" data-name="FlashAICB 1 Layer 1  Clip Group  0 0 Layer2 2 FILL">
          <path class="cls-7" d="M63.31,84.64v-.06c4.03,.5,7.5,.27,10.41-.69-1.26,1.25-2.85,1.9-4.77,1.96-1.92,.08-3.8-.33-5.64-1.21Z"/>
        </g>
        <g id="FlashAICB_1_Layer_1_Clip_Group_0_0_Layer2_13_MEMBER_1_FILL" data-name="FlashAICB 1 Layer 1  Clip Group  0 0 Layer2 13 MEMBER 1 FILL">
          <path class="cls-2" d="M120.55,51.02c2.34,.9,3.51,2.86,3.5,5.91,0,3.45-1.71,7.14-5.12,11.08-3.21,3.7-6.32,5.89-9.32,6.56-1.51,.34-3.56,.21-6.15-.38-1.32-.29-2.02-.94-2.07-1.93l.31-1.43,7.88-15.22c1.13-1.02,2.44-1.98,3.94-2.88,2.95-1.81,5.3-2.37,7.04-1.7Z"/>
        </g>
        <g id="FlashAICB_1_Layer_1_Clip_Group_0_0_Layer2_13_MEMBER_2_FILL" data-name="FlashAICB 1 Layer 1  Clip Group  0 0 Layer2 13 MEMBER 2 FILL">
          <path class="cls-2" d="M21.37,45.28c1.69-2.53,3.75-3.52,6.19-2.95,1.81,.4,3.45,2.17,4.91,5.31l1.67,4.57-1.86,17.03-.53,1.36c-.61,.8-1.55,.97-2.82,.49-2.49-.96-4.27-2-5.35-3.12-2.13-2.23-3.49-5.77-4.1-10.6-.66-5.17-.03-9.2,1.89-12.08Z"/>
        </g>
        <g id="FlashAICB_1_Layer_1_Clip_Group_0_0_Layer2_13_MEMBER_3_FILL" data-name="FlashAICB 1 Layer 1  Clip Group  0 0 Layer2 13 MEMBER 3 FILL">
          <path class="cls-1" d="M47.45,4.36C52.17,2.2,57.51,.84,63.46,.27c6.22-.58,12.22-.21,18.01,1.13,6.35,1.47,11.81,3.98,16.38,7.51,4.58,3.56,8.31,7.96,11.18,13.21,3.2,5.87,4.51,11.49,3.93,16.88-.14,1.2-.9,4.29-2.29,9.27-1.23,4.35-1.89,8.8-2,13.36-.02,.31,0,2.1,.04,5.39,0,1.51-.14,3-.43,4.46-.51,2.55-1.28,4.95-2.3,7.2-1.85,3.99-4.41,7.31-7.68,9.96-2,1.62-4.6,2.95-7.8,3.98-2.25,.73-6.44,1.77-12.58,3.12-4.97,1.09-9.16,1.67-12.57,1.76-2.16,.04-4.12-.14-5.87-.55-2.34-.55-5.41-1.81-9.23-3.79-6.89-3.6-11.32-6.04-13.27-7.31-3.31-2.2-5.72-4.62-7.22-7.26-1.74-3.02-2.81-6.31-3.21-9.87-.44-3.91,.09-7.12,1.59-9.62,.38-.62,.7-1.17,.98-1.67,.51-.88,.93-1.8,1.27-2.75,.65-1.75,1.03-3.58,1.16-5.47,.07-.84,.07-1.9,0-3.17-.25-4.25-.07-9.29,.56-15.14,.89-8.48,2.54-14.59,4.96-18.36,2.1-3.25,5.56-5.99,10.37-8.2Z"/>
        </g>
      </g>
      <g>
        <g>
          <g id="Layer3_3_MEMBER_20_FILL" data-name="Layer3 3 MEMBER 20 FILL">
            <path class="cls-1" d="M29.12,252.18c-.4-2.02-1.82-6.32-4.23-12.88-2.42-6.56-7.52-7.65-15.3-3.25-.35,1.86-.64,3.61-.89,5.25-1.48,10.18-.87,16.22,1.81,18.12,1.48,1.02,2.64,1.7,3.45,2.05,.08,.04,.15,.08,.2,.1,.78,.29,1.21,.23,1.3-.18-.24-.17-.47-.32-.69-.46-.07-.07-.14-.14-.2-.21-.05-.03-.11-.07-.17-.11-.96-.66-1.77-1.41-2.43-2.24-1.03-1.28-1.73-2.75-2.11-4.42,.38,1.67,1.08,3.14,2.11,4.42,.65,.83,1.46,1.58,2.43,2.24,.06,.05,.12,.09,.17,.11,.07,.07,.14,.14,.2,.21,.22,.13,.45,.28,.69,.46,.16,.08,.32,.18,.47,.29,1.32,.66,2.78,.95,4.36,.87l.06-.02s.03,0,.04,.02l.15-.05s-.1-.02-.15-.05h-.03c-.19-.09-.35-.18-.47-.28-1.14-.58-2.12-1.27-2.95-2.07-1.72-1.6-2.85-3.61-3.38-6.05,.54,2.43,1.67,4.45,3.38,6.05,.83,.8,1.81,1.49,2.95,2.07,.12,.1,.28,.19,.47,.29h.03c.05,.02,.11,.04,.15,.04,.87,.38,1.75,.33,2.64-.14,.02,0,.06-.03,.11-.07,.06-.02,.11-.05,.14-.08l-.04-.02c-.16-.13-.32-.25-.49-.35-.28-.23-.52-.47-.74-.71-2.35-2.23-3.85-4.9-4.49-8,.64,3.1,2.14,5.77,4.49,8,.22,.25,.46,.49,.74,.71,.17,.1,.33,.22,.49,.35l.04,.02c.2,.12,.4,.23,.62,.34s.42,.18,.61,.21c.23,.08,.46,.16,.68,.22,.12,.03,.24,.05,.36,.05,.11-.01,.23-.02,.37-.02,.08-.05,.14-.08,.21-.1,.1-.38,.14-.76,.14-1.13,.01-.9-.27-1.78-.85-2.62-.34-.5-.78-.98-1.32-1.44-1.71-1.48-2.36-4.36-1.95-8.65,.04-.34,.08-.69,.13-1.06,.54,.48,1.04,1.32,1.49,2.51,.47,1.12,1.19,1.94,2.16,2.47,1.56,.61,2.56,.34,3.01-.8Z"/>
          </g>
          <path id="Layer3_3_MEMBER_20_1_STROKES" data-name="Layer3 3 MEMBER 20 1 STROKES" class="cls-3" d="M15.47,261.39c-.24-.17-.47-.32-.69-.46-.07-.07-.14-.14-.2-.21-.05-.03-.11-.07-.17-.11-.96-.66-1.77-1.41-2.43-2.24-1.03-1.28-1.73-2.75-2.11-4.42m10.69,8.55s-.1-.02-.15-.05h-.03c-.19-.09-.35-.18-.47-.28-1.14-.58-2.12-1.27-2.95-2.07-1.72-1.6-2.85-3.61-3.38-6.05m9.88,8.16l-.04-.02c-.16-.13-.32-.25-.49-.35-.28-.23-.52-.47-.74-.71-2.35-2.23-3.85-4.9-4.49-8"/>
        </g>
        <g id="Symbol_3_0_Layer2_0_FILL" data-name="Symbol 3 0 Layer2 0 FILL">
          <path class="cls-11" d="M21.84,119.06c-.09,.24-.18,.48-.26,.72,0,0-.19,.57-.34,1.16,0,0-.04,.16-.12,.47-.22,.91-4.35,22.52-4.74,24.57-1.91,11.33-3.83,22.65-5.74,33.98,.93,6.31,4.92,11.33,10.2,12.74,4.27,1.14,7.97-.45,9.21-1,7.61-3.4,9.3-11.71,9.49-12.73,2.52-7.87,11.23-36.18,9.69-55.96-.28-3.64-.9-6.82-2.36-9.45-4.92-8.9-15.54-4.65-17.05-4.02-3.96,2.84-6.61,6.01-7.97,9.52Z"/>
        </g>
        <g id="Symbol_3_0_Layer2_0_FILL-2" data-name="Symbol 3 0 Layer2 0 FILL">
          <path class="cls-11" d="M10.98,177.46c-1.19,5.3-4.8,26.94-8.67,56.68,10.47,5.14,20.78,5.62,30.93,1.43,1.9-18.66,3.8-37.32,5.7-55.97-.32-5.98-4.02-11.17-9.4-13.21-6.09-2.31-11.61,.45-12.46,.89h0c-3.64,2.17-5.23,6.3-6.1,10.18Z"/>
        </g>
      </g>
      <g id="Layer3_3_MEMBER_2_MEMBER_0_MEMBER_0_FILL" data-name="Layer3 3 MEMBER 2 MEMBER 0 MEMBER 0 FILL">
        <path class="cls-5" d="M79.48,328.22h25.76v39.25h-25.76v-39.25Z"/>
      </g>
      <g id="Layer3_3_MEMBER_5_MEMBER_0_MEMBER_0_FILL" data-name="Layer3 3 MEMBER 5 MEMBER 0 MEMBER 0 FILL">
        <path class="cls-5" d="M37.54,325.66h25.76v39.25h-25.76v-39.25Z"/>
      </g>
      <g>
        <g id="Layer3_3_MEMBER_10_MEMBER_0_FILL" data-name="Layer3 3 MEMBER 10 MEMBER 0 FILL">
          <path class="cls-6" d="M30.07,354.07c.11,.24-.08,1.74-.55,4.5-.47,2.89-.45,5.22,.06,6.99,.45,1.55,.95,3.75,1.49,6.6,.65,1.62,1.83,1.18,3.56-1.33,1.96-2.87,4.36-5.74,7.18-8.61,2.72-2.74,4.86-4.52,6.44-5.34l1.46-.71c.86-.37,1.74-.51,2.62-.42,.93,.09,1.75,.41,2.46,.97,.84,.67,1.23,1.4,1.16,2.2-.06,.84-.17,2.35-.32,4.53-.06,2.09,.11,4.02,.52,5.79,.06,.24,.58,2.04,1.55,5.4,.58,1.96,.92,3.83,1,5.6,.13,2.96-.11,6.77-.71,11.46l-4.95,1.52c-3.97,1.12-7.59,1.92-10.87,2.39-4.1,.58-10.95,.55-20.55-.1-9.79-.67-15.25-1.53-16.37-2.59-.97-.91-1.23-2.91-.78-6.02,.67-3.26,1.02-5.23,1.07-5.92,.06-.95,1.15-2.51,3.27-4.69,1.98-2.01,3.69-3.43,5.11-4.27,6-3.45,9.33-6.27,10-8.45,.26-.8,.57-2.46,.94-4.98,.3-1.92,.71-3.19,1.23-3.82,.67-.84,1.43-1.34,2.3-1.49,.84-.13,1.4,.13,1.68,.78Z"/>
        </g>
        <g id="Layer3_3_MEMBER_10_MEMBER_3_FILL" data-name="Layer3 3 MEMBER 10 MEMBER 3 FILL">
          <path class="cls-6" d="M27.74,357.73c-.28-1.55-.43-2.69-.45-3.43-.05-.72,1.76-1.17,5.4-1.36,3.63-.17,8.11,.11,13.46,.84,5.32,.73,8.27,1.8,8.83,3.2,.57,1.41-2.26,3.77-8.48,7.09-6.22,3.34-10.93,6.64-14.14,9.9-.67,.82-2.45,.91-5.34,.26-1.6-.37-3.94-1-7.02-1.91-.52-.11-.82-.42-.91-.94-.09-.52,.1-.92,.55-1.2,5.2-3.15,7.99-6.25,8.38-9.29,.06-.54-.03-1.6-.29-3.17Z"/>
        </g>
      </g>
      <g id="Layer3_3_MEMBER_10_MEMBER_6_FILL" data-name="Layer3 3 MEMBER 10 MEMBER 6 FILL">
        <path class="cls-10" d="M54.17,365.04c.32,.52,.25,1.01-.23,1.49-.39,.39-.81,.44-1.26,.16-2.24-1.34-5.03-2.23-8.35-2.69-2.39-.3-4.89-.4-7.48-.29-1.29,.06-2.35,.16-3.17,.29l-.61-.16c-.35-.24-.41-.69-.19-1.36,.24-.76,1.55-1.21,3.95-1.36,2.14-.13,4.55,0,7.25,.39,2.46,.37,4.66,.88,6.6,1.55,1.96,.67,3.13,1.33,3.49,1.97Z"/>
      </g>
      <g>
        <g id="Layer3_3_MEMBER_11_MEMBER_0_FILL" data-name="Layer3 3 MEMBER 11 MEMBER 0 FILL">
          <path class="cls-6" d="M85.44,355.85c.84-.13,1.4,.13,1.68,.78,.11,.24-.08,1.74-.55,4.5-.47,2.89-.45,5.22,.06,6.99,.45,1.55,.95,3.75,1.49,6.6,.65,1.62,1.83,1.18,3.56-1.33,1.96-2.87,4.36-5.74,7.18-8.61,2.72-2.74,4.86-4.52,6.44-5.34l-11.81-4.01c9.71,1.83,15,2.79,15.89,2.88,.93,.09,1.75,.41,2.46,.97,.84,.67,1.23,1.4,1.16,2.2-.06,.84-.17,2.35-.32,4.53-.06,2.09,.11,4.02,.52,5.79,.06,.24,.58,2.04,1.55,5.4,.58,1.96,.92,3.83,1,5.6,.13,2.96-.11,6.77-.71,11.46l-4.95,1.52c-3.97,1.12-7.59,1.92-10.87,2.39-4.1,.58-10.95,.55-20.55-.1-9.79-.67-15.25-1.53-16.37-2.59-.97-.91-1.23-2.91-.78-6.02,.67-3.26,1.02-5.23,1.07-5.92,.06-.95,1.15-2.51,3.27-4.69,1.98-2.01,3.69-3.43,5.11-4.27,6-3.45,9.33-6.27,10-8.45,.26-.8,.57-2.46,.94-4.98,.3-1.92,.71-3.19,1.23-3.82,.67-.84,1.43-1.34,2.3-1.49Z"/>
        </g>
        <g id="Layer3_3_MEMBER_11_MEMBER_3_FILL" data-name="Layer3 3 MEMBER 11 MEMBER 3 FILL">
          <path class="cls-6" d="M76.15,373.94c-.09-.52,.1-.92,.55-1.2,5.2-3.15,7.99-6.25,8.38-9.29,.06-.54-.09-1.67-.45-3.4-.24-1.13-.34-2-.29-2.62,3.89-2.89,9.92-2.89,18.09,0,1.8,.78,3.92,1.85,6.34,3.2,4.36,2.42,4.96,5.36,1.81,8.83-3.15,3.47-10.2,5.82-21.16,7.05-.67,.82-2.45,.91-5.34,.26-1.6-.37-3.94-1-7.02-1.91-.52-.11-.82-.42-.91-.94Z"/>
        </g>
      </g>
      <g id="Layer3_3_MEMBER_11_MEMBER_6_FILL" data-name="Layer3 3 MEMBER 11 MEMBER 6 FILL">
        <path class="cls-10" d="M96.11,367.6c.32,.52,.25,1.01-.23,1.49-.39,.39-.81,.44-1.26,.16-2.24-1.34-5.03-2.23-8.35-2.69-2.39-.3-4.89-.4-7.48-.29-1.29,.06-2.35,.16-3.17,.29l-.61-.16c-.35-.24-.41-.69-.19-1.36,.24-.76,1.55-1.21,3.95-1.36,2.14-.13,4.55,0,7.25,.39,2.46,.37,4.66,.88,6.6,1.55,1.96,.67,3.13,1.33,3.49,1.97Z"/>
      </g>
      <g>
        <g id="Symbol_2_0_Layer2_0_FILL" data-name="Symbol 2 0 Layer2 0 FILL">
          <path class="cls-9" d="M52.94,104.51l1.68-2.36c.63,.43,1.25,.85,1.88,1.26,.63,.41,1.27,.79,1.94,1.13,.63,.37,1.26,.69,1.91,.97,2.39,1.12,4.91,1.88,7.54,2.27,2.52,.32,5.05,.22,7.57-.32,2.65-.6,5.16-1.6,7.51-2.98,.63-.39,1.25-.78,1.88-1.16l2.56,2.85,11.29,3.4,6.05,23.95c.84,3.73,1.43,7.51,1.78,11.33,.13,1.45,.57,6.82,1.33,16.12,.24,2.7,.49,5.74,.74,9.13h.03l1.13,11.91c-1.49,25.13-1.59,54.16,1.25,86.21,3.39,38.28,10.16,71.81,17.6,99.63-15.79,2.23-34.09,3.73-54.41,3.47-28.91-.38-54.02-4.24-74.21-8.82,9.56-75.42,19.12-150.84,28.68-226.25,1.7-9.29,3.4-18.58,5.09-27.88,6.39-1.27,12.78-2.55,19.17-3.82Z"/>
        </g>
        <g id="Symbol_2_0_Layer2_0_MEMBER_0_FILL" data-name="Symbol 2 0 Layer2 0 MEMBER 0 FILL">
          <path class="cls-9" d="M103.65,127.91c.13,.6,.26,1.21,.39,1.81,.71,3.28,1.31,6.58,1.78,9.9,.5,3.52,.97,7.05,1.42,10.61,.32,2.5,.4,5,.23,7.51-.54-5.39-1.25-11-2.14-16.83-1.12-7.77-1.78-12.1-1.97-13.01h.29Z"/>
        </g>
        <g id="Symbol_2_0_Layer2_0_MEMBER_1_FILL" data-name="Symbol 2 0 Layer2 0 MEMBER 1 FILL">
          <path class="cls-9" d="M35.79,126.84h.29c-.19,.91-.85,5.24-1.97,13.01-.88,5.82-1.6,11.43-2.14,16.83-.17-2.5-.1-5,.23-7.51,.45-3.56,.93-7.1,1.42-10.61,.47-3.32,1.07-6.62,1.78-9.9,.13-.6,.26-1.21,.39-1.81Z"/>
        </g>
      </g>
      <g>
        <g>
          <g id="Layer3_3_MEMBER_20_FILL-2" data-name="Layer3 3 MEMBER 20 FILL">
            <path class="cls-1" d="M112.52,252.18c.4-2.02,1.82-6.32,4.23-12.88,2.42-6.56,7.52-7.65,15.3-3.25,.35,1.86,.64,3.61,.89,5.25,1.48,10.18,.87,16.22-1.81,18.12-1.48,1.02-2.64,1.7-3.45,2.05-.08,.04-.15,.08-.2,.1-.78,.29-1.21,.23-1.3-.18,.24-.17,.47-.32,.69-.46,.07-.07,.14-.14,.2-.21,.05-.03,.11-.07,.17-.11,.96-.66,1.77-1.41,2.43-2.24,1.03-1.28,1.73-2.75,2.11-4.42-.38,1.67-1.08,3.14-2.11,4.42-.65,.83-1.46,1.58-2.43,2.24-.06,.05-.12,.09-.17,.11-.07,.07-.14,.14-.2,.21-.22,.13-.45,.28-.69,.46-.16,.08-.32,.18-.47,.29-1.32,.66-2.78,.95-4.36,.87l-.06-.02s-.03,0-.04,.02l-.15-.05s.1-.02,.15-.05h.03c.19-.09,.35-.18,.47-.28,1.14-.58,2.12-1.27,2.95-2.07,1.72-1.6,2.85-3.61,3.38-6.05-.54,2.43-1.67,4.45-3.38,6.05-.83,.8-1.81,1.49-2.95,2.07-.12,.1-.28,.19-.47,.29h-.03c-.05,.02-.11,.04-.15,.04-.87,.38-1.75,.33-2.64-.14-.02,0-.06-.03-.11-.07-.06-.02-.11-.05-.14-.08l.04-.02c.16-.13,.32-.25,.49-.35,.28-.23,.52-.47,.74-.71,2.35-2.23,3.85-4.9,4.49-8-.64,3.1-2.14,5.77-4.49,8-.22,.25-.46,.49-.74,.71-.17,.1-.33,.22-.49,.35l-.04,.02c-.2,.12-.4,.23-.62,.34s-.42,.18-.61,.21c-.23,.08-.46,.16-.68,.22-.12,.03-.24,.05-.36,.05-.11-.01-.23-.02-.37-.02-.08-.05-.14-.08-.21-.1-.1-.38-.14-.76-.14-1.13-.01-.9,.27-1.78,.85-2.62,.34-.5,.78-.98,1.32-1.44,1.71-1.48,2.36-4.36,1.95-8.65-.04-.34-.08-.69-.13-1.06-.54,.48-1.04,1.32-1.49,2.51-.47,1.12-1.19,1.94-2.16,2.47-1.56,.61-2.56,.34-3.01-.8Z"/>
          </g>
          <path id="Layer3_3_MEMBER_20_1_STROKES-2" data-name="Layer3 3 MEMBER 20 1 STROKES" class="cls-3" d="M131.78,253.95c-.38,1.67-1.08,3.14-2.11,4.42-.65,.83-1.46,1.58-2.43,2.24-.06,.05-.12,.09-.17,.11-.07,.07-.14,.14-.2,.21-.22,.13-.45,.28-.69,.46m1.9-7.34c-.54,2.43-1.67,4.45-3.38,6.05-.83,.8-1.81,1.49-2.95,2.07-.12,.1-.28,.19-.47,.29h-.03c-.05,.02-.11,.04-.15,.04m2.86-9.38c-.64,3.1-2.14,5.77-4.49,8-.22,.25-.46,.49-.74,.71-.17,.1-.33,.22-.49,.35l-.04,.02"/>
        </g>
        <g id="Symbol_3_0_Layer2_0_FILL-3" data-name="Symbol 3 0 Layer2 0 FILL">
          <path class="cls-11" d="M119.81,119.06c.09,.24,.18,.48,.26,.72,0,0,.19,.57,.34,1.16,0,0,.04,.16,.12,.47,.22,.91,4.35,22.52,4.74,24.57,1.91,11.33,3.83,22.65,5.74,33.98-.93,6.31-4.92,11.33-10.2,12.74-4.27,1.14-7.97-.45-9.21-1-7.61-3.4-9.3-11.71-9.49-12.73-2.52-7.87-11.23-36.18-9.69-55.96,.28-3.64,.9-6.82,2.36-9.45,4.92-8.9,15.54-4.65,17.05-4.02,3.96,2.84,6.61,6.01,7.97,9.52Z"/>
        </g>
        <g id="Symbol_3_0_Layer2_0_FILL-4" data-name="Symbol 3 0 Layer2 0 FILL">
          <path class="cls-11" d="M130.67,177.46c1.19,5.3,4.8,26.94,8.67,56.68-10.47,5.14-20.78,5.62-30.93,1.43-1.9-18.66-3.8-37.32-5.7-55.97,.32-5.98,4.02-11.17,9.4-13.21,6.09-2.31,11.61,.45,12.46,.89h0c3.64,2.17,5.23,6.3,6.1,10.18Z"/>
        </g>
      </g>
      <g>
        <g id="FlashAICB_Assets_5_Layer_1_Clip_Group_4_0_Layer1_8_FILL" data-name="FlashAICB Assets 5 Layer 1  Clip Group  4 0 Layer1 8 FILL">
          <path class="cls-8" d="M67.95,119.41c0,.38-.14,.68-.41,.89-.25,.25-.62,.37-1.12,.37s-.91-.12-1.24-.37c-.3-.25-.45-.55-.45-.89,0-.36,.15-.66,.45-.89,.4-.31,.81-.46,1.24-.46,.47,0,.85,.15,1.12,.46,.27,.19,.41,.49,.41,.89Z"/>
        </g>
        <g id="FlashAICB_Assets_5_Layer_1_Clip_Group_4_0_Layer1_9_FILL" data-name="FlashAICB Assets 5 Layer 1  Clip Group  4 0 Layer1 9 FILL">
          <path class="cls-8" d="M65.32,132.17c0,.4-.14,.72-.41,.95-.27,.21-.65,.32-1.12,.32s-.89-.11-1.24-.32c-.3-.25-.45-.56-.45-.95,0-.36,.15-.66,.45-.89,.32-.29,.74-.43,1.24-.43s.85,.14,1.12,.43c.27,.19,.41,.49,.41,.89Z"/>
        </g>
        <g id="FlashAICB_Assets_5_Layer_1_Clip_Group_4_0_Layer1_10_FILL" data-name="FlashAICB Assets 5 Layer 1  Clip Group  4 0 Layer1 10 FILL">
          <path class="cls-8" d="M63.6,144.58c0,.44-.14,.78-.41,1.01-.27,.21-.65,.32-1.12,.32s-.89-.11-1.24-.32c-.3-.25-.45-.58-.45-1.01,0-.36,.15-.66,.45-.89,.32-.29,.74-.43,1.24-.43,.47,0,.85,.14,1.12,.43,.27,.21,.41,.51,.41,.89Z"/>
        </g>
        <g id="FlashAICB_Assets_5_Layer_1_Clip_Group_4_0_Layer1_11_FILL" data-name="FlashAICB Assets 5 Layer 1  Clip Group  4 0 Layer1 11 FILL">
          <path class="cls-8" d="M63,156.65c0,.44-.14,.78-.41,1.01-.27,.21-.65,.32-1.12,.32s-.89-.11-1.24-.32c-.3-.29-.45-.62-.45-1.01,0-.36,.15-.66,.45-.89,.35-.25,.76-.37,1.24-.37,.45,0,.82,.12,1.12,.37,.27,.21,.41,.51,.41,.89Z"/>
        </g>
        <g id="FlashAICB_Assets_5_Layer_1_Clip_Group_4_0_Layer1_12_FILL" data-name="FlashAICB Assets 5 Layer 1  Clip Group  4 0 Layer1 12 FILL">
          <path class="cls-8" d="M62.32,168.2c0,.38-.14,.71-.41,.98-.27,.23-.65,.34-1.12,.34-.5,0-.91-.11-1.24-.34-.3-.31-.45-.63-.45-.98,0-.36,.15-.66,.45-.89,.3-.25,.71-.37,1.24-.37s.87,.12,1.12,.37c.27,.19,.41,.49,.41,.89Z"/>
        </g>
        <path id="FlashAICB_Assets_5_Layer_1_Clip_Group_4_0_Layer1_13_1_STROKES" data-name="FlashAICB Assets 5 Layer 1  Clip Group  4 0 Layer1 13 1 STROKES" class="cls-4" d="M64.54,111.69c-5.85,20.69-8.16,41.54-6.93,62.54,2.17,.65,4.34,1.05,6.5,1.19,0,.14,.01,.28,.02,.42m.6-.37c-.21,0-.41-.02-.62-.04-1.05-22.22,1.35-43.41,7.18-63.56"/>
        <g id="FlashAICB_Assets_5_Layer_1_Clip_Group_4_0_Layer1_16_MEMBER_0_MEMBER_0_FILL" data-name="FlashAICB Assets 5 Layer 1  Clip Group  4 0 Layer1 16 MEMBER 0 MEMBER 0 FILL">
          <path class="cls-8" d="M51.99,160.2l-.14,.05c-.8,.33-1.61,.62-2.43,.85,.73-.32,1.42-.73,2.05-1.22,.24-1.29,.38-3.1,.41-5.41,.03,1.98,.07,3.89,.12,5.73m-22.25-25l.31,.08c7.33,1.71,14.55,2.54,21.64,2.49h.29c-.1,4.54-.16,8.82-.16,12.83-.06-2.04-.18-4.35-.37-6.92-.99,0-1.99,0-3.02-.04,1.06-.08,2.06-.21,3.02-.4v-5.01c-6.96,.02-14.02-.8-21.2-2.45v5c2.57,.72,4.74,1.19,6.5,1.42,1.82,.23,3.18,.41,4.09,.55,.91,.14,1.49,.24,1.75,.3-1.97-.05-3.95-.2-5.95-.47-1.54-.21-3.09-.49-4.65-.84-.59-.12-1.18-.28-1.75-.48-.16,5.98-.16,11.37,0,16.17,5.14,2.8,9.57,4.33,13.28,4.59-4.57,.06-9.13-1.38-13.69-4.31l-.12-.08c.52-7.06,.52-14.54,0-22.44Z"/>
          <path class="cls-9" d="M30.27,140.78v-5c7.17,1.65,14.24,2.47,21.2,2.45v5.01c-.95,.18-1.96,.32-3.02,.4,1.02,.03,2.03,.05,3.02,.04,.18,2.57,.31,4.87,.37,6.92v.86c.02,1.03,.03,2.04,.04,3.03-.03,2.31-.16,4.11-.41,5.41-.63,.49-1.31,.9-2.05,1.22-1.7,.75-3.65,1.06-5.87,.92-3.71-.26-8.14-1.79-13.28-4.59-.16-4.8-.16-10.19,0-16.17,.57,.2,1.15,.36,1.75,.48,1.56,.35,3.11,.63,4.65,.84,1.99,.27,3.98,.42,5.95,.47-.25-.06-.84-.16-1.75-.3-.91-.14-2.27-.32-4.09-.55-1.76-.22-3.92-.7-6.5-1.42Z"/>
        </g>
      </g>
      <path class="cls-11" d="M54.62,102.15l2.1-3.8c2.58,4.89,7.58,8.03,13.06,8.17,5.76,.15,11.15-3.03,13.86-8.17,.4,1.65,.8,3.31,1.2,4.96-.33,.54-5.23,8.19-14.45,8.37-6.56,.12-12.69-3.58-15.77-9.53Z"/>
    </g>
  </g>
</svg>