<svg xmlns="http://www.w3.org/2000/svg" width="512" height="512" viewBox="0 0 512 512" version="1.1">
	<path d="M 0 256 L 0 512 96.750 511.861 C 149.963 511.784, 189.675 511.379, 185 510.960 C 163.487 509.034, 132.614 502.113, 115.726 495.431 C 77.008 480.111, 47.438 453.783, 26.155 415.680 C 11.328 389.135, 1.987 348.118, 2.011 309.658 C 2.033 273.289, 8.170 237.760, 19.488 208.478 C 47.984 134.748, 102.963 74.108, 174.034 38.022 C 239.896 4.581, 306.327 -4.665, 367.692 11.066 C 381.713 14.660, 403.090 22.738, 413.240 28.276 C 452.199 49.536, 479.959 86.348, 496.792 139.076 C 508.755 176.547, 511.858 222.762, 505.483 268.500 C 498.602 317.860, 479.066 365.812, 450.092 404.460 C 440.764 416.903, 415.873 442.088, 402.411 452.705 C 361.068 485.310, 313.308 504.374, 257.764 510.441 C 247.063 511.610, 262.520 511.763, 379 511.641 L 512.500 511.500 512.752 255.750 L 513.004 0 256.502 0 L 0 0 0 256 M 0.492 256.500 C 0.492 397.300, 0.608 454.751, 0.750 384.170 C 0.892 313.588, 0.892 198.388, 0.750 128.170 C 0.608 57.951, 0.492 115.700, 0.492 256.500 M 332.675 89.990 C 286.791 95.769, 241.354 117.492, 191 157.723 C 136.251 201.465, 102.498 247.778, 84.029 304.500 C 76.410 327.897, 72.763 349.500, 76.085 351.553 C 76.682 351.921, 78.648 351.427, 80.455 350.455 C 84.937 348.040, 86.677 349.022, 89.590 355.607 C 90.960 358.705, 93.268 362.796, 94.720 364.699 C 104.571 377.615, 141.967 396.079, 180.151 406.881 C 241.555 424.251, 297.561 426.039, 337.602 411.908 C 362.420 403.150, 388.145 385.654, 408.895 363.423 C 426.016 345.079, 436.681 324.900, 443.525 297.900 C 447.195 283.422, 448.715 270.912, 450.439 241 C 452.109 212.011, 452.789 207.011, 459.479 174.500 C 466.969 138.107, 467.520 123.484, 461.964 108.633 C 457.179 95.845, 449.891 90.146, 437.209 89.277 C 430.365 88.808, 428.494 89.099, 420.538 91.874 C 409.695 95.656, 406.862 95.702, 387 92.426 C 370.004 89.621, 344.630 88.484, 332.675 89.990 M 344.500 103.683 C 334.096 105.011, 317.804 108.697, 307.407 112.075 C 284.431 119.539, 266.708 130.370, 251.144 146.458 C 242.825 155.058, 239.799 159.750, 235.154 171.250 C 234.121 173.807, 233.635 174, 228.232 174 C 212.431 174, 192.323 183.879, 170 202.608 C 141.726 226.331, 113.371 268.161, 100.500 305.137 C 96.777 315.834, 96.074 321.707, 98.410 322.604 C 102.248 324.077, 115.625 313.583, 130.622 297.336 C 150.198 276.126, 164.337 261.933, 174 253.792 C 194.402 236.603, 220.255 221.737, 239 216.416 C 256.480 211.455, 261.467 207.596, 268.923 193.265 C 271.208 188.872, 275.693 182.172, 278.890 178.374 C 297.050 156.800, 333.994 133.974, 372.500 120.536 C 396.391 112.198, 397 111.947, 397 110.440 C 397 105.831, 383.718 102.990, 363 103.167 C 354.475 103.240, 346.150 103.472, 344.500 103.683 M 391.694 163.201 C 389.972 164.492, 390.026 164.965, 392.895 173.527 C 397.160 186.261, 404.744 216.345, 407.118 229.951 C 409.764 245.121, 409.946 264.442, 407.551 276 C 406.582 280.675, 404.227 289.670, 402.319 295.989 C 399.120 306.577, 398.429 307.917, 393.506 313.079 C 383.207 323.876, 374.681 339.039, 372.604 350.250 C 371.915 353.968, 371.869 354, 367.091 354 C 355.207 354, 344.208 357.863, 331.900 366.361 C 327.009 369.737, 319.656 374.798, 315.561 377.606 C 311.465 380.414, 301.264 385.804, 292.891 389.582 C 278.263 396.183, 277.801 396.481, 281.084 397.194 C 282.963 397.601, 290.125 398.220, 297 398.568 C 315.929 399.527, 334.412 396.218, 350.529 388.987 C 359.629 384.904, 365.221 380.927, 374.628 371.846 C 379.098 367.531, 383.332 364, 384.037 364 C 386.445 364, 396.018 355.924, 401.572 349.208 C 411.999 336.597, 417.024 322.874, 414.879 312.869 C 413.842 308.036, 413.926 307.631, 416.798 303.632 C 427.273 289.045, 435.431 249.156, 432.927 224.760 C 430.720 203.253, 424.796 186.501, 415.100 174.352 C 407.836 165.249, 396.296 159.752, 391.694 163.201 M 298 184.367 C 298 187.416, 297.363 188.155, 291.250 192.195 C 287.538 194.649, 282.802 197.677, 280.726 198.925 C 276.073 201.721, 274 205.543, 274 211.328 C 274 216.622, 273.162 217.417, 266 218.921 C 257.925 220.616, 252.441 223.625, 248.369 228.594 C 244.993 232.714, 244.440 233, 239.846 233 C 235.262 233, 234.790 233.242, 232.802 236.612 C 230.778 240.041, 230.453 240.198, 226.354 239.736 C 223.321 239.395, 222.235 239.584, 222.703 240.375 C 226.937 247.520, 234.852 258.977, 239.750 265.049 C 246.870 273.876, 251.074 276.584, 256.171 275.628 C 260.736 274.771, 274.406 268.129, 282.826 262.677 C 294.542 255.090, 321.770 234.132, 324.026 230.964 C 330.218 222.267, 325.993 211.082, 308.636 190.229 C 300.304 180.217, 298 178.948, 298 184.367 M 380.215 195.519 C 378.447 199.104, 377 202.592, 377.001 203.269 C 377.001 203.946, 380.596 207.788, 384.989 211.806 L 392.977 219.112 392.400 214.306 C 391.574 207.432, 389.205 199.339, 386.395 193.793 C 385.059 191.157, 383.845 189, 383.698 189 C 383.550 189, 381.983 191.934, 380.215 195.519 M 370.244 215.735 C 369.554 215.974, 367.153 219.314, 364.909 223.155 C 362.666 226.997, 357.459 234.615, 353.339 240.085 C 346.818 248.741, 345.931 250.410, 346.493 252.966 C 347.401 257.101, 353.631 266.278, 361.121 274.514 C 364.629 278.372, 369.240 283.904, 371.368 286.808 C 373.495 289.712, 375.745 291.922, 376.368 291.719 C 378.517 291.017, 385.104 281.475, 388.944 273.500 C 393.754 263.508, 395.385 256.728, 395.450 246.455 C 395.498 238.657, 395.371 238.213, 391.291 231.948 C 388.975 228.393, 385.375 223.820, 383.291 221.785 C 379.514 218.099, 372.631 214.907, 370.244 215.735 M 329 266.690 C 325.072 268.084, 319.620 272.792, 317.249 276.838 C 315.192 280.349, 314.625 282.635, 314.625 287.428 C 314.625 294.584, 317.228 300.149, 324.773 309.120 C 327.373 312.211, 332.090 317.948, 335.254 321.870 C 338.419 325.791, 341.663 329, 342.462 329 C 343.261 329, 348.406 325.617, 353.895 321.482 C 363.774 314.040, 371 306.815, 371 304.380 C 371 302.072, 358.711 284.893, 351.655 277.338 C 342.383 267.410, 335.754 264.294, 329 266.690 M 286.970 299.250 C 277.926 303.819, 275.917 311.525, 280.362 324.594 C 283.358 333.403, 286.036 338.645, 292.250 347.863 C 297.887 356.225, 298.002 356.253, 309.250 352.020 C 313.583 350.390, 330.848 340.155, 333.874 337.423 C 335.244 336.186, 315 308.930, 308.389 303.112 C 301.102 296.697, 294.411 295.491, 286.970 299.250 M 256.473 321.371 C 255.388 322.125, 243.925 328.227, 231 334.930 C 218.075 341.633, 206.825 347.797, 206 348.627 C 204.666 349.970, 204.821 350.396, 207.412 352.485 C 209.014 353.777, 213.964 356.633, 218.412 358.831 C 239.905 369.454, 257.030 371.093, 277.105 364.449 C 289.318 360.407, 289.099 361.425, 280.856 347 C 270.972 329.705, 263.296 320, 259.500 320 C 258.920 320, 257.557 320.617, 256.473 321.371 M 182.721 358.189 C 179.542 359.913, 177.095 361.786, 177.283 362.350 C 177.471 362.914, 179.622 364.021, 182.063 364.811 C 184.503 365.601, 194.567 369.113, 204.426 372.614 C 214.285 376.116, 222.507 378.826, 222.696 378.637 C 222.886 378.448, 221.119 377.022, 218.770 375.469 C 216.422 373.915, 209.245 368.674, 202.821 363.822 C 196.398 358.970, 190.548 355.012, 189.821 355.027 C 189.095 355.041, 185.899 356.464, 182.721 358.189 M 150.250 370.675 C 147.912 372.036, 146 373.507, 146 373.943 C 146 375.431, 178.825 387, 183.047 387 C 183.841 387, 179.767 384.258, 173.995 380.908 C 168.223 377.557, 161.624 373.282, 159.332 371.408 C 157.039 369.533, 155.014 368.045, 154.832 368.100 C 154.649 368.155, 152.588 369.314, 150.250 370.675" stroke="none" fill="black" fill-rule="evenodd"/>
</svg>