<?xml version="1.0" encoding="UTF-8"?>
<svg id="Objects" xmlns="http://www.w3.org/2000/svg" viewBox="0 0 50 50">
  <defs>
    <style>
      .cls-1, .cls-2, .cls-3, .cls-4 {
        stroke-width: 0px;
      }

      .cls-2 {
        fill: #272425;
      }

      .cls-3 {
        fill: #f4f4f4;
      }

      .cls-4 {
        fill: #fff;
        opacity: .3;
      }
    </style>
  </defs>
  <g>
    <g>
      <path class="cls-3" d="m48.38,26.8c.41-5.16-3.95-9.72-9.74-10.18-5.79-.46-10.82,3.35-11.24,8.51-.41,5.16,3.1,9.45,9.91,9.74,6.06.27,10.66-2.91,11.07-8.08Z"/>
      <path class="cls-1" d="m27.39,26.15c.42-3.47,2.56-6.7,6.11-8.34,4.11-1.89,9.09-.86,12.12,2.5,1.74,1.93,2.63,4.26,2.74,6.58.31-2.56-.31-5.25-1.98-7.52-3.04-4.12-8.79-5.47-13.33-3.09-3.84,2-5.85,5.93-5.67,9.87Z"/>
    </g>
    <g>
      <circle class="cls-2" cx="37.91" cy="25.5" r="7.52"/>
      <path class="cls-1" d="m34.3,25.4c-.08,1.99,1.48,3.66,3.45,3.73s3.67-1.47,3.75-3.46-1.48-3.66-3.48-3.73-3.65,1.49-3.73,3.46Z"/>
      <path class="cls-4" d="m34.34,23.47c-.04.95.69,1.75,1.62,1.78s1.71-.71,1.75-1.66c.04-.93-.69-1.75-1.62-1.79s-1.72.73-1.75,1.66Z"/>
    </g>
  </g>
  <g>
    <g>
      <path class="cls-3" d="m1.56,26c-.02-5.18,4.68-9.4,10.49-9.41,5.81-.02,10.54,4.16,10.56,9.34.02,5.18-3.81,9.19-10.62,8.97-6.06-.19-10.41-3.71-10.43-8.89Z"/>
      <path class="cls-1" d="m22.55,26.94c-.16-3.49-2.04-6.87-5.47-8.78-3.95-2.2-9-1.54-12.27,1.57-1.88,1.79-2.94,4.05-3.23,6.36-.12-2.58.71-5.21,2.54-7.35,3.34-3.88,9.18-4.79,13.52-2.07,3.67,2.29,5.39,6.36,4.9,10.27Z"/>
    </g>
    <g>
      <circle class="cls-2" cx="12.1" cy="25.64" r="7.52"/>
      <path class="cls-1" d="m8.5,25.51c-.08,1.99,1.48,3.66,3.45,3.73s3.67-1.47,3.75-3.46-1.48-3.66-3.48-3.73-3.65,1.49-3.73,3.46Z"/>
      <path class="cls-4" d="m8.53,23.57c-.04.95.69,1.75,1.62,1.78s1.71-.71,1.75-1.66-.69-1.75-1.62-1.79-1.72.73-1.75,1.66Z"/>
    </g>
  </g>
</svg>