<?xml version="1.0" encoding="UTF-8"?>
<svg xmlns="http://www.w3.org/2000/svg" xmlns:xlink="http://www.w3.org/1999/xlink" viewBox="0 0 174.73 85.96">
  <defs>
    <style>
      .cls-1, .cls-2, .cls-3 {
        fill: #38251d;
      }

      .cls-4 {
        isolation: isolate;
      }

      .cls-2 {
        opacity: .3;
      }

      .cls-2, .cls-3 {
        mix-blend-mode: multiply;
      }

      .cls-5 {
        fill: #ffe1c9;
      }

      .cls-6 {
        clip-path: url(#clippath);
      }

      .cls-7 {
        fill: none;
      }

      .cls-8 {
        fill: #966048;
      }
    </style>
    <clipPath id="clippath">
      <path class="cls-7" d="M14.16,70.81s6.4,1.01,15.52-2.95c62.87,14.96,104.8,7.3,127.32-5.73C139.26,13.2,106.8-.68,53.51,26.48,18.03,44.61,10.48,70.67,14.16,70.81Z"/>
    </clipPath>
  </defs>
  <g class="cls-4">
    <g id="Layer_2" data-name="Layer 2">
      <g id="Layer_1-2" data-name="Layer 1">
        <g>
          <path class="cls-5" d="M2.02,67.42S23.63,2.38,98.11,0c60.05,1.01,76.62,57.4,76.62,57.4,0,0-28.3,48.79-141.42,18.82-12.62,.07-41.11,11-31.29-8.8Z"/>
          <g>
            <path class="cls-8" d="M93.45,77.08c-19.43,0-40.78-2.73-63.68-8.16-8.82,3.75-15.07,2.99-15.72,2.9-.38-.03-1.33-.26-1.64-1.66-1.18-5.37,8.82-29.27,40.68-45.55,27.26-13.89,49.06-17.27,66.62-10.33,16.5,6.51,29.01,22.05,38.23,47.5l.29,.79-.73,.42c-12.6,7.29-29.53,11.96-48.95,13.5-4.89,.39-9.93,.58-15.1,.58Zm-63.87-10.28l.33,.08c24.74,5.89,86.31,17.1,125.84-5.2-8.99-24.4-21.03-39.3-36.78-45.52-17-6.71-38.25-3.36-64.97,10.25C21.16,43.19,14.98,65.57,14.74,66.52c-.52,1.98-.43,2.98-.33,3.31,.8,.1,6.74,.64,14.87-2.89l.31-.13Z"/>  \\strokr
            <path class="cls-8" d="M93.45,77.08c-19.43,0-40.78-2.73-63.68-8.16-8.82,3.75-15.07,2.99-15.72,2.9-.38-.03-1.33-.26-1.64-1.66-1.18-5.37,8.82-29.27,40.68-45.55,27.26-13.89,49.06-17.27,66.62-10.33,16.5,6.51,29.01,22.05,38.23,47.5l.29,.79-.73,.42c-12.6,7.29-29.53,11.96-48.95,13.5-4.89,.39-9.93,.58-15.1,.58Zm-63.87-10.28l.33,.08c24.74,5.89,86.31,17.1,125.84-5.2-8.99-24.4-21.03-39.3-36.78-45.52-17-6.71-38.25-3.36-64.97,10.25C21.16,43.19,14.98,65.57,14.74,66.52c-.52,1.98-.43,2.98-.33,3.31,.8,.1,6.74,.64,14.87-2.89l.31-.13Z"/>
          </g>
          <g class="cls-6">
            <path class="cls-1" d="M123.54,39.8c0,19.17-15.54,34.71-34.71,34.71s-34.71-15.54-34.71-34.71S69.65,5.09,88.82,5.09s34.71,15.54,34.71,34.71Z"/>
            <path class="cls-1" d="M123.54,39.8c0,19.17-15.54,34.71-34.71,34.71s-34.71-15.54-34.71-34.71S69.65,5.09,88.82,5.09s34.71,15.54,34.71,34.71Z"/>
            <path class="cls-1" d="M116.88,33.14c0,15.49-12.56,28.05-28.05,28.05s-28.05-12.56-28.05-28.05,12.56-28.05,28.05-28.05,28.05,12.56,28.05,28.05Z"/>
            <path class="cls-3" d="M113.29,40.13c0,13.51-10.95,24.47-24.47,24.47s-24.46-10.95-24.46-24.47,10.95-24.47,24.46-24.47,24.47,10.95,24.47,24.47Z"/>
            <path class="cls-2" d="M88.82,5.09c-19.17,0-34.71,15.54-34.71,34.71s15.54,34.71,34.71,34.71,34.71-15.54,34.71-34.71S108,5.09,88.82,5.09Z"/>
          </g>
        </g>
      </g>
    </g>
  </g>
</svg>