<?xml version="1.0" encoding="UTF-8"?>
<svg id="Layer_2" data-name="Layer 2" xmlns="http://www.w3.org/2000/svg" viewBox="0 0 105.59 96.53">
  <defs>
    <style>
      .cls-1 {
        fill: #3f2520;
      }
    </style>
  </defs>
  <g id="Layer_1-2" data-name="Layer 1">
    <g>
      <g>
        <path class="cls-1" d="M17.02,82.78C-1.33,62.58,4.93,27.9,24.17,12.98c26-20.17,73.68-2.68,80.55,26.2,4.61,19.4-9.68,41.92-29.15,51.56-17.73,8.77-43.42,8.69-58.54-7.95Z"/>
        <path class="cls-1" d="M82.88,80.19c1.49-13.55,2.98-27.11,4.47-40.66-1.6-2.42-11.25-16.49-30.24-19.89-19.02-3.4-32.96,6.5-35.3,8.22-2.38,3.06-4.86,6.78-7.07,11.2-6.06,12.08-7.23,23.5-7.3,30.82-1.24-1.8-11.77-17.65-5.41-35.16C7.25,20.35,20.28,14.66,25.94,12.2c22.94-10.01,44.72,1.18,48.16,3.01,6.58,3.52,17.8,9.53,22.13,22.22,7.15,20.95-12.29,41.67-13.34,42.75Z"/>
      </g>
      <path class="cls-1" d="M65.29,.59c18.48,3.37,35.26,19.63,37.46,37.84,1.54,12.77-3.85,28.4-10.5,29.46-2.55,.4-5.12-1.34-5.95-1.94-2.96-2.14-4.52-6.18-6.1-13.06-1.22-5.29-.47-10.85-.16-14.88-.76,.55-1.8,1.29-3.07,2.12-1.98,1.3-3.96,2.46-6.55,3.85-3.67,1.96-7.27,3.57-9.11,4.43-11.01,5.15-26.87,6.57-28.28,3.19-.58-1.39,.4-4.03,2.13-6.28-3.05,.48-7.67,.38-8.36,.37C12.06,45.42,.21,36.54,2.45,27.07c1.9-8.01,14.78-16.41,33.3-22.03C47.21,1.56,55.07-1.27,65.29,.59Z"/>
    </g>
  </g>
</svg>