<?xml version="1.0" encoding="UTF-8"?>
<svg id="Layer_2" data-name="Layer 2" xmlns="http://www.w3.org/2000/svg" viewBox="0 0 120.48 112.13">
  <defs>
    <style>
      .cls-1 {
        fill: #3d1926;
      }

      .cls-2 {
        fill: #582938;
      }
    </style>
  </defs>
  <g id="Layer_1-2" data-name="Layer 1">
    <g>
      <g id="FlashAICB_1_Layer_1_Clip_Group_0_0_Layer2_13_MEMBER_0_FILL" data-name="FlashAICB 1 Layer 1  Clip Group  0 0 Layer2 13 MEMBER 0 FILL">
        <path class="cls-1" d="M24.57,35.49c8.7-8.97,19.21-13.46,31.55-13.47,14.11,0,26.18,3.03,36.21,9.09,9.45,5.7,16.03,13.37,19.72,22.99,3.09,8.11,4.11,16.3,3.06,24.56-.58,4.54-1.86,9.93-3.84,16.19-.78,3.35-3.37,7.23-7.76,11.66-2.2,2.2-4.32,4.07-6.34,5.62L27.14,89.31s-1.06-.01-3.12,.03c-2.46-.13-4.65-.61-6.58-1.44-6.23-2.72-8.9-8.62-7.99-17.69,1.4-14.16,6.43-25.73,15.11-34.7Z"/>
      </g>
      <g id="FlashAICB_1_Layer_1_Clip_Group_0_0_Layer2_13_MEMBER_9_MEMBER_0_FILL" data-name="FlashAICB 1 Layer 1  Clip Group  0 0 Layer2 13 MEMBER 9 MEMBER 0 FILL">
        <path class="cls-1" d="M68.95,64.94c.86-.27,2.09-.64,3.59-1.02,2.67-.68,4.01-1.03,5.21-1.1,.95-.06,4.72-.23,8.09,2.19,1.23,.88,1.95,1.77,2.8,2.83,1.8,2.24,2.66,4.32,3.31,5.88,.65,1.56,1.14,3.2,1.6,5.24-3.99-4.27-7.71-6.6-10.41-7.93-1.33-.66-4.14-1.85-9.75-4.22-1.86-.79-3.39-1.43-4.42-1.86Z"/>
      </g>
      <g id="FlashAICB_1_Layer_1_Clip_Group_0_0_Layer2_13_MEMBER_9_MEMBER_0_FILL-2" data-name="FlashAICB 1 Layer 1  Clip Group  0 0 Layer2 13 MEMBER 9 MEMBER 0 FILL">
        <path class="cls-1" d="M44.27,58.17c-.86-.27-2.09-.64-3.59-1.02-2.67-.68-4.01-1.03-5.21-1.1-.95-.06-4.72-.23-8.09,2.19-1.23,.88-1.95,1.77-2.8,2.83-1.8,2.24-2.66,4.32-3.31,5.88-.65,1.56-1.14,3.2-1.6,5.24,3.99-4.27,7.71-6.6,10.41-7.93,1.33-.66,4.14-1.85,9.75-4.22,1.86-.79,3.39-1.43,4.42-1.86Z"/>
      </g>
      <g>
        <path class="cls-1" d="M20.07,50.17c7.39-7.65,10.07-9.48,19.13-14.11-1.75,1.51-9.54,10.69-9.85,13.43,11.16-3.54,24.14-9.49,35.6-8.91-1.66,2.72-5.04,10.01-7.06,12.87,9.62,1.36,31.85-9.56,41.6-11.02,13.65,15.47,.67,39.86-.06,61.99,7.77-20.69,24.19-41.31,20.52-63.7-.67-4.17-2.55-7.93-5.38-10.81-.26-.26-.51-.5-.75-.77-8.23-8.43-15.47-17.98-21.54-28.35l-2.63,11.23C74.33,2.8,56.21-1.31,38.28,.37c2.37,3.67,4.76,7.34,7.54,11.21-13.39-1.35-27.25,1.01-39.87,6.78,5.02,4.62,10.06,9.22,13.68,12.88-4.77,1.96-9.28,4.72-13.33,8.14-2.26,1.89-4.38,4.02-6.3,6.31,3.28,1.53,6.56,3.04,8.78,3.9-1.32,4.65-2.86,12.27-1.84,21.59,1.28,11.7,7.64,16.65,10.45,21-.95-6.19-1.29-11.16-.22-20.9,.95-8.62,.95-15.65,2.91-21.11Z"/>
        <path class="cls-2" d="M29.81,31.47c-3.64-3.96-7.26-7.91-10.88-11.88,12.94-4.58,27.1-5.71,40.42-2.94-2.51-2.93-5.01-5.87-7.51-8.79,15.87,.27,31.37,5.86,43.82,15.79,.09-2.88,.17-5.75,.24-8.62,4.75,5.7,10.98,10.58,17.94,14.15-8.23-8.43-15.47-17.98-21.54-28.35l-2.63,11.23C74.33,2.84,56.22-1.27,38.29,.41c2.37,3.67,4.76,7.34,7.54,11.21-13.39-1.35-27.25,1.01-39.87,6.78,5.02,4.62,10.06,9.22,13.68,12.88-4.77,1.96-9.28,4.72-13.33,8.14,7.41-3.96,15.38-6.67,23.5-7.94Z"/>
      </g>
    </g>
  </g>
</svg>