<?xml version="1.0" encoding="UTF-8"?>
<svg xmlns="http://www.w3.org/2000/svg" xmlns:xlink="http://www.w3.org/1999/xlink" viewBox="0 0 212.4 105">
  <defs>
    <style>
      .cls-1 {
        fill: url(#linear-gradient-2);
      }

      .cls-2, .cls-3, .cls-4 {
        fill: #38251d;
      }

      .cls-5 {
        fill: url(#linear-gradient-4);
      }

      .cls-5, .cls-6 {
        mix-blend-mode: screen;
      }

      .cls-7 {
        fill: #6b5549;
      }

      .cls-8 {
        isolation: isolate;
      }

      .cls-3, .cls-9, .cls-10, .cls-4, .cls-11, .cls-12 {
        mix-blend-mode: multiply;
      }

      .cls-3, .cls-10 {
        opacity: .3;
      }

      .cls-13 {
        fill: #ffe1c9;
      }

      .cls-6 {
        fill: url(#linear-gradient-5);
      }

      .cls-9 {
        fill: #d2a98c;
      }

      .cls-14 {
        fill: url(#radial-gradient);
      }

      .cls-15 {
        fill: #f08262;
      }

      .cls-16 {
        clip-path: url(#clippath);
      }

      .cls-17 {
        fill: none;
      }

      .cls-18 {
        fill: #686867;
      }

      .cls-19 {
        fill: url(#linear-gradient-3);
      }

      .cls-20 {
        fill: url(#linear-gradient);
      }

      .cls-11 {
        fill: #e2b596;
      }

      .cls-21 {
        fill: #966048;
      }
    </style>
    <linearGradient id="linear-gradient" x1="93.91" y1="27.8" x2="112.6" y2="130.36" gradientUnits="userSpaceOnUse">
      <stop offset="0" stop-color="#fff"/>
      <stop offset="1" stop-color="gray"/>
    </linearGradient>
    <linearGradient id="linear-gradient-2" x1="93.91" y1="27.8" x2="112.6" y2="130.36" gradientUnits="userSpaceOnUse">
      <stop offset="0" stop-color="#fff"/>
      <stop offset=".2" stop-color="#fbfbfb"/>
      <stop offset=".38" stop-color="#f1f1f1"/>
      <stop offset=".54" stop-color="#dfdfdf"/>
      <stop offset=".7" stop-color="#c6c6c6"/>
      <stop offset=".85" stop-color="#a6a6a6"/>
      <stop offset="1" stop-color="gray"/>
    </linearGradient>
    <linearGradient id="linear-gradient-3" x1="108.69" y1="56.55" x2="112.43" y2="19.59" xlink:href="#linear-gradient-2"/>
    <clipPath id="clippath">
      <path class="cls-17" d="M17.21,86.59s7.78,1.23,18.87-3.59c76.42,18.18,127.39,8.87,154.77-6.97C169.28,16.55,129.83-.31,65.05,32.7,21.92,54.74,12.74,86.42,17.21,86.59Z"/>
    </clipPath>
    <radialGradient id="radial-gradient" cx="107.98" cy="48.22" fx="107.98" fy="48.22" r="44.27" gradientUnits="userSpaceOnUse">
      <stop offset="0" stop-color="#fff"/>
      <stop offset=".35" stop-color="#b5a7a0"/>
      <stop offset=".8" stop-color="#5b3d2d"/>
      <stop offset="1" stop-color="#381300"/>
    </radialGradient>
    <linearGradient id="linear-gradient-4" x1="76.46" y1="30.32" x2="94.52" y2="43.39" gradientUnits="userSpaceOnUse">
      <stop offset="0" stop-color="#fff"/>
      <stop offset="1" stop-color="#000"/>
    </linearGradient>
    <linearGradient id="linear-gradient-5" x1="119.29" y1="9.2" x2="126.35" y2="14.32" gradientTransform="translate(-30.4 110.21) rotate(-30.65)" xlink:href="#linear-gradient-4"/>
  </defs>
  <g class="cls-8">
    <g id="Layer_2" data-name="Layer 2">
      <g id="Layer_1-2" data-name="Layer 1">
        <g>
          <path class="cls-13" d="M2.46,82.46S28.72,3.4,119.27,.51c73,1.22,93.14,69.78,93.14,69.78,0,0-34.4,59.31-171.91,22.87-15.34,.08-49.97,13.37-38.04-10.7Z"/>
          <path class="cls-9" d="M195.2,55.2s-.47-.64-1.35-1.86c-.84-1.24-2.23-2.96-3.93-5.12-3.5-4.28-8.89-10.1-16.39-15.61-3.75-2.73-8.05-5.35-12.79-7.69-28.65-14.12-61.8-8.39-89.31,5.48-12.15,6.13-23.68,13.53-34.2,22.17-2.99,2.45-5.74,4.43-7.82,6.29-4.3,3.57-6.75,5.61-6.75,5.61,0,0,2.07-2.43,5.71-6.69,1.8-2.16,4.21-4.56,6.93-7.37,2.68-2.86,6.01-5.77,9.59-9.03C65.87,22.33,93.71,8.96,122.41,8.72c8.28-.07,16.79,1.51,24.69,3.97,11.88,3.68,21.95,9.88,29.22,16.48,7.35,6.56,12.03,13.32,14.86,18.18,1.44,2.45,2.42,4.41,3.03,5.78,.65,1.35,1,2.07,1,2.07Z"/>
          <g>
            <g>
              <path class="cls-20" d="M17.21,86.59s7.78,1.23,18.87-3.59c76.42,18.18,127.39,8.87,154.77-6.97C169.28,16.55,131.18-2.14,65.09,31.52,21.96,53.56,12.74,86.42,17.21,86.59Z"/>
              <path class="cls-21" d="M113.6,94.21c-23.63,0-49.57-3.32-77.41-9.92-10.72,4.56-18.33,3.63-19.11,3.52-.46-.04-1.62-.32-1.99-2.02-1.43-6.52,10.72-35.58,49.45-55.37,33.14-16.88,59.63-20.99,80.99-12.56,20.06,7.92,35.26,26.81,46.48,57.75l.35,.97-.89,.51c-15.32,8.87-35.9,14.54-59.51,16.41-5.95,.47-12.07,.7-18.35,.71Zm-77.64-12.49l.4,.09c30.08,7.16,104.91,20.78,152.97-6.33-10.93-29.66-25.56-47.77-44.71-55.33-20.66-8.16-46.49-4.08-78.97,12.46C25.72,53.02,18.22,80.22,17.92,81.37c-.63,2.4-.53,3.62-.4,4.02,.97,.12,8.2,.78,18.08-3.52l.38-.16Z"/>
            </g>
            <g>
              <path class="cls-1" d="M17.21,86.59s7.78,1.23,18.87-3.59c76.42,18.18,127.39,8.87,154.77-6.97C169.28,16.55,131.18-2.14,65.09,31.52,21.96,53.56,12.74,86.42,17.21,86.59Z"/>
              <path class="cls-21" d="M113.6,94.21c-23.63,0-49.57-3.32-77.41-9.92-10.72,4.56-18.33,3.63-19.11,3.52-.46-.04-1.62-.32-1.99-2.02-1.43-6.52,10.72-35.58,49.45-55.37,33.14-16.88,59.63-20.99,80.99-12.56,20.06,7.92,35.26,26.81,46.48,57.75l.35,.97-.89,.51c-15.32,8.87-35.9,14.54-59.51,16.41-5.95,.47-12.07,.7-18.35,.71Zm-77.64-12.49l.4,.09c30.08,7.16,104.91,20.78,152.97-6.33-10.93-29.66-25.56-47.77-44.71-55.33-20.66-8.16-46.49-4.08-78.97,12.46C25.72,53.02,18.22,80.22,17.92,81.37c-.63,2.4-.53,3.62-.4,4.02,.97,.12,8.2,.78,18.08-3.52l.38-.16Z"/>
            </g>
            <g class="cls-12">
              <path class="cls-19" d="M52.59,43.84c27.01-12.96,59.02-14.68,87.71-6.47,17.89,5.13,35.51,14.49,46.81,29.14C164.96,14.65,127.51-.27,65.09,31.52c-16.78,8.58-28.41,18.79-36.12,28.07,7.1-6.28,15.12-11.68,23.61-15.76Z"/>
            </g>
            <g class="cls-12">
              <path class="cls-15" d="M33.47,71.57c-1.22-8.6,1.66-16.13,6.15-22.9-21.28,18.79-25.81,37.79-22.41,37.92,0,0,7.78,1.23,18.87-3.59,1.34,.32,2.66,.61,3.99,.91-3.39-3.11-5.85-7.06-6.6-12.34Z"/>
            </g>
            <g class="cls-10">
              <path class="cls-15" d="M33.47,71.57c-1.22-8.6,1.66-16.13,6.15-22.9-21.28,18.79-25.81,37.79-22.41,37.92,0,0,7.78,1.23,18.87-3.59,1.34,.32,2.66,.61,3.99,.91-3.39-3.11-5.85-7.06-6.6-12.34Zm-5.48-3.31c-.17,1.15-.95,3.12-.98,3.18-1.06,2.8-1.18,5.81-1.82,8.71-.36,1.6-1.66,3.67-3.65,3.3-5.73-1.05,4.08-14.6,5.85-15.85,.6-.42,.71-.02,.61,.65Z"/>
            </g>
            <path class="cls-11" d="M31.34,40.26s1.19-1.53,3.56-3.91c1.15-1.23,2.67-2.6,4.36-4.24,1.77-1.53,3.68-3.4,6-5.12,2.27-1.81,4.77-3.7,7.52-5.57,2.66-1.98,5.7-3.76,8.8-5.65,3.18-1.73,6.47-3.59,9.94-5.17,3.52-1.48,7.01-3.2,10.73-4.36l5.51-1.85c1.86-.53,3.75-.95,5.6-1.42,1.87-.44,3.69-.97,5.54-1.26,1.86-.27,3.69-.53,5.49-.79,1.81-.2,3.57-.62,5.32-.64,1.75-.05,3.46-.09,5.13-.15,1.67-.04,3.28-.09,4.84-.13,1.56,.12,3.08,.23,4.53,.33,2.89,.24,5.54,.38,7.86,.77,2.3,.48,4.3,.91,5.96,1.25,3.27,.74,5.15,1.16,5.15,1.16,0,0-1.92-.15-5.27-.42-1.66-.16-3.67-.35-5.99-.57-2.32-.12-4.95,.04-7.78-.04-1.42,0-2.9-.02-4.43-.02-1.53,.15-3.1,.3-4.72,.45-3.24,.29-6.65,.6-10.11,1.33-1.74,.31-3.51,.63-5.3,.95-1.78,.35-3.53,.93-5.34,1.35-1.79,.49-3.62,.91-5.41,1.44l-5.33,1.86c-3.62,1.08-7.03,2.72-10.48,4.12-3.39,1.52-6.68,3.14-9.84,4.75-3.06,1.78-6.17,3.27-8.92,5.04-2.81,1.65-5.4,3.34-7.74,4.97-2.38,1.57-4.45,3.17-6.39,4.48-1.83,1.42-3.48,2.61-4.76,3.69-2.62,2.08-4.05,3.37-4.05,3.37Z"/>
            <path class="cls-11" d="M36.15,83.76s2.57,.69,7.12,1.66c4.53,1.07,11.09,2.21,18.93,3.52,3.94,.57,8.2,1.3,12.74,1.72,4.53,.58,9.33,.93,14.28,1.31,4.94,.53,10.09,.42,15.3,.73,5.22,0,10.52,0,15.8-.24,2.64-.18,5.29-.34,7.91-.51l3.94-.25,3.89-.52c5.15-.74,10.28-1.15,15.09-2.34,4.85-1.02,9.59-1.81,13.91-3.24,4.33-1.35,8.6-2.23,12.19-3.9,3.67-1.48,7.07-2.77,10.09-3.93,2.9-1.38,5.36-2.73,7.44-3.77,4.16-2.1,6.53-3.29,6.53-3.29,0,0-2.24,1.43-6.15,3.9-1.99,1.2-4.36,2.74-7.17,4.37-2.93,1.41-6.26,2.99-9.92,4.64-3.59,1.85-7.85,2.95-12.19,4.53-4.33,1.67-9.1,2.73-14.04,3.85-4.89,1.31-10.09,1.94-15.35,2.7l-3.95,.56-4.02,.3c-2.68,.19-5.37,.39-8.05,.58-5.39,.21-10.78,.16-16.08,.1-5.28-.31-10.51-.4-15.5-1.04-5.02-.47-9.84-1.09-14.38-1.89-4.56-.65-8.81-1.58-12.75-2.33-7.85-1.66-14.25-3.51-18.71-4.87-4.45-1.35-6.92-2.34-6.92-2.34Z"/>
          </g>
          <g class="cls-16">
            <path class="cls-2" d="M150.17,48.89c0,23.3-18.89,42.2-42.2,42.2s-42.2-18.89-42.2-42.2S84.67,6.7,107.98,6.7s42.2,18.89,42.2,42.2Z"/>
            <path class="cls-2" d="M150.17,48.89c0,23.3-18.89,42.2-42.2,42.2s-42.2-18.89-42.2-42.2S84.67,6.7,107.98,6.7s42.2,18.89,42.2,42.2Z"/>
            <path class="cls-2" d="M142.08,40.8c0,18.83-15.27,34.1-34.1,34.1s-34.1-15.27-34.1-34.1S89.14,6.7,107.98,6.7s34.1,15.27,34.1,34.1Z"/>
            <path class="cls-14" d="M147.84,48.22c0,22.02-17.84,39.86-39.86,39.86s-39.86-17.85-39.86-39.86S85.96,8.36,107.98,8.36s39.86,17.85,39.86,39.86Z"/>
            <path class="cls-4" d="M137.72,49.3c0,16.43-13.31,29.74-29.74,29.74s-29.74-13.31-29.74-29.74,13.31-29.74,29.74-29.74,29.74,13.32,29.74,29.74Z"/>
            <path class="cls-3" d="M107.98,6.7c-23.3,0-42.2,18.89-42.2,42.2s18.89,42.2,42.2,42.2,42.2-18.89,42.2-42.2S131.28,6.7,107.98,6.7Zm0,77.23c-19.18,0-34.72-15.55-34.72-34.72S88.8,14.48,107.98,14.48s34.72,15.55,34.72,34.72-15.55,34.72-34.72,34.72Z"/>
            <path class="cls-5" d="M95.24,42.09c-2.94,6.03-8.8,9.22-13.08,7.13-4.28-2.09-5.36-8.67-2.42-14.7,2.94-6.03,8.8-9.22,13.08-7.13,4.28,2.09,5.36,8.67,2.42,14.7Z"/>
            <path class="cls-6" d="M85.59,57.53c.21,2.61-1.12,4.85-2.98,5.01-1.86,.15-3.53-1.85-3.74-4.46-.21-2.61,1.12-4.85,2.98-5,1.86-.15,3.53,1.85,3.74,4.46Z"/>
          </g>
          <g>
            <path class="cls-18" d="M46.45,84.23c-1.13-.66-3.06,1.36-3.79,2.04-1.79,1.65-3,4.06-3.46,6.42-.06,.3,.36,.15,.42-.03,.58-1.61,1.23-3.13,2.19-4.55,.82-1.22,2.85-3.57,4.51-3.65,.09,0,.26-.16,.13-.23Z"/>
            <path class="cls-18" d="M40.11,83.19c-1.45-.56-3.19,.78-4.3,1.6-1.5,1.12-2.69,2.65-3.34,4.41-.11,.31,.28,.23,.38,.03,.64-1.34,1.46-2.45,2.53-3.48,1.09-1.05,3.02-2.51,4.6-2.33,.09,0,.25-.18,.13-.23Z"/>
            <path class="cls-18" d="M57.21,86.61c-2.88,1.44-5.02,4.22-5.67,7.39-.06,.3,.43,.15,.51-.02,1.23-2.86,2.63-5.39,5.26-7.18,.16-.11,.07-.26-.1-.18Z"/>
            <path class="cls-18" d="M87.53,90.91c-.51,1.76-.8,3.58-.97,5.4-.03,.29,.35,.11,.39-.08,.41-1.78,.6-3.59,.9-5.39,.04-.23-.27-.08-.31,.06Z"/>
            <path class="cls-18" d="M101.4,91.52c-.05-.14-.27,.04-.26,.14,.13,.82-.15,1.78-.18,2.62-.03,.94,.02,1.87,.11,2.81,.02,.25,.39,.04,.4-.13,.07-.97,.04-1.94,.02-2.91-.02-.83,.22-1.74-.09-2.53Z"/>
            <path class="cls-18" d="M115.77,91.81c-.06-.18-.36,.05-.33,.18,.3,1.48,.03,2.99,.28,4.48,.04,.26,.41,.02,.39-.17-.1-1.5,.14-3.04-.35-4.49Z"/>
            <path class="cls-18" d="M128.65,91.4c-.1-.03-.26,.16-.14,.2,2.43,.94,3.62,3.41,5.02,5.43,.09,.13,.36-.11,.29-.24-1.22-2.16-2.65-4.64-5.17-5.39Z"/>
            <path class="cls-18" d="M140.26,90.25c-.09-.02-.24,.18-.12,.22,2.98,.87,4.62,3.06,6.27,5.53,.08,.13,.35-.11,.28-.23-1.51-2.63-3.36-4.83-6.43-5.51Z"/>
            <path class="cls-18" d="M160.14,89.64c-1.66-1.46-3.79-1.41-5.87-1.56-.1,0-.22,.19-.09,.21,2.08,.23,3.99,.38,5.78,1.57,.09,.06,.27-.14,.18-.22Z"/>
            <path class="cls-18" d="M171.46,86.93c-1.48-2.18-4.51-1.33-6.71-1.64-.09-.01-.19,.15-.08,.17,2.33,.47,4.71-.13,6.57,1.68,.1,.1,.29-.1,.22-.22Z"/>
            <path class="cls-18" d="M188.99,79.98c-1.56-1.8-4.54-1.13-6.62-.93-.08,0-.19,.19-.06,.2,2.16,.15,4.68-.65,6.48,.94,.1,.09,.29-.1,.2-.2Z"/>
            <path class="cls-18" d="M192.6,77.9c-2.99-.89-5.92-.39-8.88,.41-.11,.03-.21,.26-.04,.23,2.94-.64,5.81-.99,8.79-.41,.1,.02,.25-.2,.13-.23Z"/>
            <path class="cls-18" d="M180.37,82.97c-2.1-.6-4.34-1.54-6.43-.4-.08,.04-.19,.29-.02,.24,2.24-.66,4.07-.1,6.27,.42,.13,.03,.33-.21,.18-.26Z"/>
            <path class="cls-18" d="M164.5,87.98c-1.15-.97-3.04-1.58-4.54-1.27-.09,.02-.24,.22-.08,.24,1.6,.2,3.04,.27,4.42,1.22,.1,.07,.3-.11,.2-.2Z"/>
            <path class="cls-18" d="M153,91.31c-.78-1.26-2.75-2.87-4.35-2.37-.11,.03-.35,.34-.11,.35,1.67,.01,3.23,.88,4.22,2.22,.08,.1,.3-.09,.23-.19Z"/>
            <path class="cls-18" d="M134.91,91.05c-.11-.06-.31,.14-.25,.25,.27,.44,.72,.77,1.07,1.15,.44,.47,.83,.97,1.14,1.53,.07,.14,.3-.05,.25-.17-.43-1.02-1.24-2.18-2.2-2.76Z"/>
            <path class="cls-18" d="M122.89,91.7c-.11-.11-.33,.12-.24,.24,1.11,1.47,2.07,2.97,2.39,4.81,.03,.15,.24,.01,.23-.1-.2-1.86-1.02-3.65-2.38-4.95Z"/>
            <path class="cls-18" d="M108.04,92.16c-.43,1.59-.33,3.27-.24,4.9,0,.17,.25,0,.26-.11,.07-1.64,.04-3.25,.38-4.86,.06-.28-.34-.11-.39,.08Z"/>
            <path class="cls-18" d="M94.08,91.13c-1.14,1.94-1.12,4.27-1.55,6.42-.04,.18,.22,.09,.25-.02,.39-1.13,.51-2.32,.75-3.48,.19-.93,.95-1.98,.87-2.94-.02-.19-.27-.08-.33,.02Z"/>
            <path class="cls-18" d="M79.4,89.97c-1.68,1.72-2.23,4.57-2.12,6.88,0,.16,.25,0,.25-.11,.01-1.37,.26-2.64,.72-3.93,.35-.98,.94-1.82,1.36-2.75,.07-.16-.12-.18-.21-.09Z"/>
            <path class="cls-18" d="M69.2,88.34c-2.94,1.63-4.04,4.97-4.7,8.07-.04,.2,.24,.08,.28-.05,.84-3.15,2.05-5.6,4.52-7.77,.11-.1,.08-.34-.1-.24Z"/>
            <path class="cls-18" d="M63.69,87.29c-2.54,.92-3.39,3.92-4.55,6.07-.07,.13,.12,.13,.17,.04,1.25-2.12,2.07-4.61,4.4-5.79,.17-.09,.24-.42-.02-.32Z"/>
            <path class="cls-18" d="M50.45,85.17c-2.79,.71-4.46,4.01-5.24,6.51-.06,.18,.17,.1,.21-.01,.51-1.28,1.1-2.52,1.93-3.63,.85-1.16,1.93-1.81,3.12-2.56,.11-.07,.2-.35-.02-.3Z"/>
            <path class="cls-18" d="M74.43,88.84c-.54,.04-.97,.72-1.19,1.15-.34,.65-.55,1.35-.81,2.03-.07,.18,.16,.13,.21,.01,.23-.47,.42-.96,.65-1.43,.14-.28,.3-.55,.49-.8,.2-.28,.5-.43,.72-.69,.09-.1,.13-.29-.07-.27Z"/>
          </g>
          <g>
            <path class="cls-7" d="M37.19,51.48c-.12-.06-.31-.04-.5,.13-2.61,2.23-7.66,3.5-10.87,1.69,1.08,1.12,3.16,1.51,4.83,1.59,1.08-.08,2.15-.31,3.15-.67,1.35-.65,2.6-1.47,3.4-2.74Z"/>
            <path class="cls-7" d="M37.5,49.8c.65-.18,1.29-.4,1.86-.65,.56-.24,1.06-.57,1.55-.92-4.12,.52-8.71,.88-11.35-2.8,.22,1.32,1.1,2.41,2.25,3.19,1.69,.93,3.7,1.29,5.69,1.17Z"/>
            <path class="cls-7" d="M39.36,45.43c2.17,.6,4.3,.7,6.14-.57-.06-.04-.16-.05-.3,0-3.2,1.12-6.83-.08-9.08-2.54,.55,1.45,1.52,2.64,3.24,3.11Z"/>
            <path class="cls-7" d="M48.76,37.81c2.13,1.1,4.64,1.08,6.73-.06-.07-.04-.17-.05-.32,0-3.96,1.32-7.92-.5-10.35-3.68,.71,1.63,2.58,3.04,3.94,3.74Z"/>
            <path class="cls-7" d="M52.55,28.3c1.53,4.47,7.48,7.38,11.8,5.07,.08-.04,.15-.11,.21-.19-4.76,.68-9.44-.76-12.01-4.88Z"/>
            <path class="cls-7" d="M72.5,29.07c-1.62-.05-3.23-.54-4.68-1.39-.37-.18-.74-.39-1.1-.65-.5-.36-.93-.77-1.31-1.22-.98-.99-1.77-2.14-2.29-3.37,.82,3.96,3.91,7.06,7.99,7.18,.48-.14,.94-.34,1.38-.56Z"/>
            <path class="cls-7" d="M77.94,20.91c.55,.45,1.18,.82,1.86,1.12,.09,.04,.18,.08,.28,.12,.06,.02,.12,.04,.17,.06,.86,.29,1.77,.45,2.7,.58,.91,.07,1.83,.01,2.69-.18-.02-.02-.03-.05-.07-.05-2.52-.47-4.91-.7-7.03-2.28-1.35-1.01-2.26-2.51-2.79-4.13,.13,1.83,.78,3.6,2.19,4.78Z"/>
            <path class="cls-7" d="M95.19,10.11c-.04-.39-.07-.78-.06-1.18-.02-.92,.02-1.84,.11-2.72-.11,.04-.22,.13-.27,.25-1.58,4.04,.01,10.48,4.2,12.44,.1,.05,.24,.02,.36-.05-2.85-1.84-4.07-5.26-4.34-8.75Z"/>
            <path class="cls-7" d="M110.11,9.22c-.05-.37-.08-.76-.1-1.15-.06-.57-.07-1.15-.06-1.73-.03-.73-.09-1.46-.24-2.13-1,3.48-.22,7.28,1.15,10.6-.28-1.86-.5-3.72-.75-5.58Z"/>
            <path class="cls-7" d="M132.18,9.6c.43-2.08-.03-3.59-.97-5.12,1.01,3.12,.32,6.38-1.01,9.35,.94-1.25,1.65-2.66,1.98-4.22Z"/>
            <path class="cls-7" d="M149.76,10.1s-.02,.08-.01,.11c.42,2.94-.99,5.53-3.21,7.39-.04,.04-.07,.07-.09,.11,2.46-1.74,4.97-4.89,3.31-7.6Z"/>
            <path class="cls-7" d="M158.91,24.93c1.28-.68,2.39-1.96,3.16-3.34,.22-.67,.33-1.39,.3-2.11-.34,.97-.9,1.86-1.51,2.67-.77,1.03-1.91,2.37-3.29,2.45-.19,.01-.4,.21-.51,.42,.66,.12,1.29,.08,1.86-.09Z"/>
            <path class="cls-7" d="M167.45,31.36c1.61-.75,2.72-2.35,3.07-4.1-.46,.78-.96,1.53-1.58,2.2-.72,.78-1.6,1.24-2.44,1.81,.32,.04,.63,.07,.95,.09Z"/>
            <path class="cls-7" d="M170.53,36.4c.39,.17,.8,.23,1.22,.25,1.17-.44,2.41-1,3.29-1.83,.01-.03,0-.05,.02-.07,.24-.44,.37-.89,.42-1.36-.93,1.82-3.25,2.11-4.95,3.01Z"/>
            <path class="cls-7" d="M174.42,37.86c-.74,.46-1.62,.58-2.36,1.03-.26,.16-.43,.77,.05,.69,.88-.16,1.82-.69,2.51-1.24,.3-.24,.22-.73-.2-.47Z"/>
            <path class="cls-7" d="M181.84,46.97c-.94,.83-2.25,.86-3.23,1.59-.28,.21-.35,.77,.13,.59,1.18-.42,2.51-.98,3.4-1.88,.29-.29-.01-.57-.31-.31Z"/>
            <path class="cls-7" d="M41.3,41.14c.96,.81,2.06,1.38,3.24,1.66,.5,.1,1,.16,1.47,.17,1.72,.04,3.05-.44,4.28-1.4-.04-.03-.11-.03-.21,0-3.53,1.43-7.2,.51-9.57-2.3,.04,.73,.33,1.35,.79,1.86Z"/>
            <path class="cls-7" d="M50.3,31.95c-.05,.21-.06,.42-.08,.63,.68,1.22,1.29,2.43,2.46,3.27,1.44,1.03,3.33,1.05,5.04,.89-3.08-.31-5.99-2.03-7.42-4.78Z"/>
            <path class="cls-7" d="M67.3,30.41c-2.35,.33-5.84-.65-6.55-3.19-.14,.53-.18,1.05-.07,1.54,1.24,2.1,4.34,3.23,6.57,2.35,.29-.12,.55-.77,.05-.7Z"/>
            <path class="cls-7" d="M73.65,25.49c1.48,.64,2.89,.65,4.32,.33-2.99,.05-6.1-1.71-7.33-4.47,.04,1.75,1.36,3.43,3.01,4.14Z"/>
            <path class="cls-7" d="M86.96,16.01c.43,1.11,1.08,2.15,1.89,2.97,.91,.66,2.03,1.01,3.14,.93,0-.09-.02-.17-.09-.25-1.03-.94-2.14-1.64-3.05-2.73-.83-1-1.44-2.15-1.7-3.4-.22,.82-.31,1.66-.18,2.48Z"/>
            <path class="cls-7" d="M102.85,13.7c.54,1.58,1.47,2.23,2.71,2.7-1.73-2.02-2.38-4.5-2.6-7.08-.47,1.41-.58,3-.11,4.38Z"/>
            <path class="cls-7" d="M121.97,12.42c.36-1.8,.05-3.6-.68-5.25,.6,2.55,.23,4.93-.48,7.38,.54-.64,1.01-1.34,1.16-2.13Z"/>
            <path class="cls-7" d="M141.34,13.86c.72-1.51,1.16-3.44,.58-5.06,0,0,0,.02,0,.03,.05,2.77-1.01,4.77-2.8,6.79-.06,.07-.09,.14-.11,.21,.94-.5,1.9-1.04,2.34-1.96Z"/>
            <path class="cls-7" d="M154.59,20.41c.6-.65,1.23-1.92,.96-2.86-.24,.99-.69,1.86-1.43,2.59-.66,.66-1.5,1.01-2.31,1.43,1.04-.11,2.05-.38,2.78-1.16Z"/>
            <path class="cls-7" d="M165.84,25.99c-.66,1.16-1.59,1.86-2.66,2.61-.33,.23-.39,.86,.15,.67,1.44-.5,2.48-1.81,3.1-3.14,.21-.45-.41-.45-.59-.14Z"/>
            <path class="cls-7" d="M176.34,41.79c-.35,.41-.88,.41-1.32,.69-.22,.14-.43,.61-.05,.67,.7,.11,1.48-.49,1.84-1.04,.26-.39-.19-.64-.47-.31Z"/>
          </g>
        </g>
      </g>
    </g>
  </g>
</svg>