<?xml version="1.0" encoding="UTF-8"?>
<svg id="Layer_2" data-name="Layer 2" xmlns="http://www.w3.org/2000/svg" xmlns:xlink="http://www.w3.org/1999/xlink" viewBox="0 0 115.02 100.16">
  <defs>
    <style>
      .cls-1 {
        fill: #575757;
      }

      .cls-2 {
        fill: #1a1212;
      }

      .cls-3 {
        mask: url(#mask);
      }
    </style>
    <mask id="mask" x="5.68" y="-2.5" width="105.3" height="43.89" maskUnits="userSpaceOnUse"/>
  </defs>
  <g id="Layer_1-2" data-name="Layer 1">
    <g>
      <g id="FlashAICB_1_Layer_1_Clip_Group_0_0_Layer2_13_MEMBER_0_FILL" data-name="FlashAICB 1 Layer 1  Clip Group  0 0 Layer2 13 MEMBER 0 FILL">
        <path class="cls-2" d="M18.81,23.53c8.7-8.97,19.21-13.46,31.55-13.47,14.11,0,26.18,3.03,36.21,9.09,9.45,5.7,16.03,13.37,19.72,22.99,3.09,8.11,4.11,16.3,3.06,24.56-.58,4.54-1.86,9.93-3.84,16.19-.78,3.35-3.37,7.23-7.76,11.66-2.2,2.2-4.32,4.07-6.34,5.62L21.38,77.34s-1.06-.01-3.12,.03c-2.46-.13-4.65-.61-6.58-1.44-6.23-2.72-8.9-8.62-7.99-17.69,1.4-14.16,6.43-25.73,15.11-34.7Z"/>
      </g>
      <g id="FlashAICB_1_Layer_1_Clip_Group_0_0_Layer2_13_MEMBER_4_FILL" data-name="FlashAICB 1 Layer 1  Clip Group  0 0 Layer2 13 MEMBER 4 FILL">
        <path class="cls-2" d="M9.54,17.37c2.59-3.16,5.62-6,9.1-8.53C24.85,4.3,32.02,1.51,40.16,.46c4.62-.6,10.47-.61,17.55-.03,5.74,.45,10.88,1.35,15.43,2.68,7.95,2.32,15.04,6.01,21.27,11.08,5.03,4.11,8.97,8.08,11.83,11.89,5.25,6.99,8.15,14.53,8.7,22.6,.38,5.86-.48,11.67-2.58,17.44-1.29,3.56-3.02,6.98-5.2,10.28-3.55-1.31-7.23-3.1-11.02-5.37-7.32-4.43-12.48-9.38-15.48-14.84-1.25-2.27-2.41-5.09-3.48-8.47-1.33-4.12-2.23-8.3-2.7-12.53l-.3,1.87c-.26,1.49-.57,2.87-.92,4.14-.41,1.47-1.11,2.84-2.1,4.12-.53,.68-1.16,1.38-1.91,2.1-3.06,3.44-5,8.92-5.81,16.46-10.79-4.42-17.62-10.2-20.49-17.36-1.31-3.27-2.68-8.43-4.11-15.5-1.2,1.73-2.21,3.62-3.01,5.66-1.31,3.3-1.94,6.69-1.89,10.19,.08,4.67,1.28,9.03,3.6,13.08-6.37-2.32-11.71-6-16.02-11.06-2.52-2.94-4.57-6.35-6.16-10.22,.32,1.6,.45,3.23,.39,4.91-.1,2.78-.74,5.42-1.9,7.91-1.3,2.76-3.17,5.14-5.61,7.13-1.37,1.11-2.85,2.03-4.43,2.78-1.36-3.06-2.36-6.25-3-9.57-1.02-5.25-1.06-10.44-.12-15.57,1.28-6.92,4.23-13.21,8.86-18.87Z"/>
      </g>
      <g class="cls-3">
        <g id="FlashAICB_1_Layer_1_Clip_Group_1_0_Layer2_0_FILL" data-name="FlashAICB 1 Layer 1  Clip Group  1 0 Layer2 0 FILL">
          <path class="cls-1" d="M18.72,8.83c2.99-2.19,6.29-4,9.9-5.44,1.94,1.52,4.05,2.88,6.34,4.1,6.31,4.87,13.49,7.85,21.55,8.95,11.63,2.04,23.2,.47,34.69-4.71,1.14,.82,2.23,1.65,3.28,2.5,2.64,2.15,4.78,4.05,6.44,5.69,3,2.99,5.53,6.1,7.59,9.35-3.05-1.13-6.33-1.95-9.83-2.43-12.9-2.27-25.68-.11-38.34,6.48-1.87-1.4-3.73-2.57-5.57-3.51-6.31-4.87-13.48-7.85-21.52-8.94-9.15-1.61-18.28-.97-27.4,1.92,3.17-5.37,7.46-10.01,12.87-13.93Z"/>
        </g>
      </g>
      <g id="FlashAICB_1_Layer_1_Clip_Group_0_0_Layer2_13_MEMBER_7_FILL" data-name="FlashAICB 1 Layer 1  Clip Group  0 0 Layer2 13 MEMBER 7 FILL">
        <path class="cls-2" d="M84.24,36.68l-7.35,25.58c-.73-.32-1.62-.77-2.65-1.33-1.86-1.08-3.58-2.26-5.15-3.57-4.9-4.11-7.58-8.77-8.03-13.98-.25-2.82,.17-5.67,1.27-8.53l21.9,1.83Z"/>
      </g>
      <g id="FlashAICB_1_Layer_1_Clip_Group_0_0_Layer2_13_MEMBER_8_FILL" data-name="FlashAICB 1 Layer 1  Clip Group  0 0 Layer2 13 MEMBER 8 FILL">
        <path class="cls-2" d="M20.59,51.57c-2.59-1.08-5.2-2.71-7.83-4.9-4.88-4.11-7.56-8.77-8.03-13.98-.24-2.87,.19-5.71,1.31-8.53l21.91,1.8-7.35,25.61Z"/>
      </g>
      <g id="FlashAICB_1_Layer_1_Clip_Group_0_0_Layer2_13_MEMBER_9_MEMBER_0_FILL" data-name="FlashAICB 1 Layer 1  Clip Group  0 0 Layer2 13 MEMBER 9 MEMBER 0 FILL">
        <path class="cls-2" d="M57.14,59.11l-.17-.34c2.29-1.27,4.71-2.01,7.26-2.24,3.79-.43,7.44,.43,10.94,2.59,3.34,2.05,5.91,4.81,7.71,8.3l-.38,.17c-5.01-3.21-8.99-5.34-11.93-6.38-3.68-1.35-8.16-2.05-13.44-2.11Z"/>
      </g>
      <g id="FlashAICB_1_Layer_1_Clip_Group_0_0_Layer2_13_MEMBER_9_MEMBER_7_FILL" data-name="FlashAICB 1 Layer 1  Clip Group  0 0 Layer2 13 MEMBER 9 MEMBER 7 FILL">
        <path class="cls-2" d="M40.58,56.26l.22-.3c-2.03-1.72-4.28-2.96-6.76-3.71-3.65-1.21-7.38-1.13-11.18,.26-3.62,1.31-6.61,3.5-8.97,6.55l.34,.25c5.46-2.11,9.73-3.37,12.79-3.78,3.84-.56,8.36-.32,13.55,.73Z"/>
      </g>
    </g>
  </g>
</svg>