<?xml version="1.0" encoding="UTF-8"?>
<svg id="Layer_2" data-name="Layer 2" xmlns="http://www.w3.org/2000/svg" viewBox="0 0 276.93 215">
  <defs>
    <style>
      .cls-1 {
        fill: #1d1818;
      }

      .cls-2 {
        fill: #ff9477;
      }
    </style>
  </defs>
  <g id="Layer_1-2" data-name="Layer 1">
    <g>
      <g id="FlashAICB_1_Layer_1_Clip_Group_0_0_Layer1_10_FILL" data-name="FlashAICB 1 Layer 1  Clip Group  0 0 Layer1 10 FILL">
        <path class="cls-1" d="M263.7,161.1c-.75,6.06-2.03,12.64-3.75,19.76,0,.02-.02,.02-.02,.02-1.46,6.01-3.25,12.43-5.42,19.19-.47,2.12-1.3,4.36-2.43,6.72-.38-.21-.78-.4-1.18-.57-5.82-2.31-12.17-1.98-19.08,1.06-4.67,1.91-8.75,4.48-12.21,7.71v-.05c.31-11.93,2-23.77,5.12-35.46,1.09-4.15,2.03-7.8,2.81-10.96-15.61-10.04-26.74-21.13-33.41-33.25-1.63-2.92-3.18-6.3-4.69-10.09l-6.93,24.17c-.92-.38-3.07-1.44-6.39-3.14-4.57-2.71-8.72-5.59-12.45-8.61-2.33-1.96-4.48-3.98-6.39-6.06-2.1,6.32-3.61,13.72-4.55,22.21-26.06-10.68-42.49-24.62-49.33-41.76-3.25-8.3-6.53-20.73-9.88-37.33-2.88,4.17-5.31,8.72-7.33,13.61-3.09,7.9-4.6,16.08-4.53,24.55,.24,11.32,3.14,21.79,8.72,31.41-15.28-5.52-28.15-14.36-38.62-26.53-.78-.9-1.53-1.82-2.26-2.76l-2.5,8.7c-3.7-1.49-7.45-3.49-11.2-6.01-.64,2.15-1.44,4.22-2.41,6.25-2.1,4.39-4.76,8.37-8.02,11.95-1.06,11.86-1.51,22.42-1.37,31.64-1.84-1.72-3.75-2.81-5.75-3.25-2.48-.57-4.81-.52-6.98,.09-1.63-4.88-2.38-10.54-2.24-16.95,.02-2.12,.14-4.34,.38-6.63,1.44-14.12,4.34-27.19,8.77-39.19,5.73-15.59,14.03-29.38,24.85-41.33,.9-1.01,1.84-2,2.78-2.99,20.94-21.65,46.26-32.47,75.97-32.47,33.81,0,62.86,7.31,87.12,21.88,22.8,13.72,38.62,32.19,47.46,55.36,7.43,19.55,9.88,39.24,7.33,59.09Z"/>
      </g>
      <g id="FlashAICB_1_Layer_1_Clip_Group_0_0_Layer1_13_FILL" data-name="FlashAICB 1 Layer 1  Clip Group  0 0 Layer1 13 FILL">
        <path class="cls-2" d="M230.54,154.83c-.24,2.05-1.23,6.6-3.02,13.7-15.61-10.04-26.74-21.13-33.41-33.25-1.63-2.92-3.18-6.3-4.69-10.09l-6.93,24.17c-.92-.38-3.07-1.44-6.39-3.14-4.57-2.71-8.72-5.59-12.45-8.61-2.33-1.96-4.48-3.98-6.39-6.06-2.1,6.32-3.61,13.72-4.55,22.21-26.06-10.68-42.49-24.62-49.33-41.76-3.25-8.3-6.53-20.73-9.88-37.33-2.88,4.17-5.31,8.72-7.33,13.61-3.09,7.9-4.6,16.08-4.53,24.55,.24,11.32,3.14,21.79,8.72,31.41-15.28-5.52-28.15-14.36-38.62-26.53-.78-.9-1.53-1.82-2.26-2.76l-2.5,8.7c-3.7-1.49-7.45-3.49-11.2-6.01-.64,2.15-1.44,4.22-2.41,6.25-2.1,4.39-4.76,8.37-8.02,11.95,.07-.8,.14-1.6,.21-2.43,.8-7.78,1.84-14.81,3.09-21.1,2.36-11.95,5.52-21.2,9.48-27.75,5.28-8.54,14.03-15.77,26.29-21.74,11.93-5.68,25.51-9.27,40.7-10.82,15.52-1.63,30.72-.66,45.6,2.9,16.22,3.96,30.06,10.63,41.52,20.02,11.58,9.29,21.03,21.01,28.39,35.11,8.06,15.61,11.37,30.53,9.9,44.8Z"/>
      </g>
      <g id="FlashAICB_1_Layer_1_Clip_Group_0_0_Layer1_14_FILL" data-name="FlashAICB 1 Layer 1  Clip Group  0 0 Layer1 14 FILL">
        <path class="cls-1" d="M270.44,159.12c-2.57,7.4-6.08,14.64-10.49,21.74,0,.02-.02,.02-.02,.02-.61,1.01-1.27,2.03-1.93,3.02-8.61-3.09-17.45-7.4-26.53-12.9-1.34-.83-2.66-1.63-3.94-2.48-15.61-10.04-26.74-21.13-33.41-33.25-1.63-2.92-3.18-6.3-4.69-10.09-1.27-3.14-2.48-6.55-3.68-10.26-3.04-9.76-5.14-19.38-6.32-28.86-.07-.47-.14-.92-.19-1.39l-.21,1.37-.5,3.16c-.38,2.64-1.11,5.99-2.19,10.02-.87,3.25-2.52,6.55-5,9.88-.87,1.08-2.41,2.76-4.67,5-3.89,4.39-7.03,10.21-9.41,17.45-2.1,6.32-3.61,13.72-4.55,22.21-26.06-10.68-42.49-24.62-49.33-41.76-3.25-8.3-6.53-20.73-9.88-37.33-2.88,4.17-5.31,8.72-7.33,13.61-3.09,7.9-4.6,16.08-4.53,24.55,.24,11.32,3.14,21.79,8.72,31.41-15.28-5.52-28.15-14.36-38.62-26.53-.78-.9-1.53-1.82-2.26-2.76-4.95-6.37-9.13-13.68-12.5-21.9,.75,3.49,1.08,7.45,.92,11.86-.17,4.43-.85,8.68-2.12,12.73-.64,2.15-1.44,4.22-2.41,6.25-2.1,4.39-4.76,8.37-8.02,11.95-1.67,1.86-3.51,3.61-5.49,5.26-3.49,2.78-7.05,5-10.7,6.63l-.14-.35c-3.25-7.33-5.61-14.88-7.05-22.68-2.5-12.57-2.62-25.04-.35-37.44,1.82-9.53,4.9-18.56,9.31-27.07,.42-.83,.85-1.65,1.3-2.48,3.04-5.54,6.65-10.85,10.8-15.94,6.2-7.62,13.49-14.43,21.86-20.49C59.76,10.36,77.02,3.61,96.64,1.04c11.18-1.39,25.25-1.39,42.23,0,13.49,1.01,25.91,3.14,37.23,6.39,19.08,5.59,36.12,14.5,51.17,26.76,12.19,10,21.69,19.55,28.51,28.63,12.57,16.91,19.55,34.99,20.94,54.3,.94,14.19-1.16,28.2-6.27,41.99Z"/>
      </g>
      <g id="FlashAICB_1_Layer_1_Clip_Group_0_0_Layer1_17_FILL" data-name="FlashAICB 1 Layer 1  Clip Group  0 0 Layer1 17 FILL">
        <path class="cls-1" d="M200.17,87.81l-10.75,37.37-6.93,24.17c-.92-.38-3.07-1.44-6.39-3.14-4.57-2.71-8.72-5.59-12.45-8.61-2.33-1.96-4.48-3.98-6.39-6.06-7.76-8.37-12.05-17.57-12.92-27.56-.54-6.74,.47-13.61,3.02-20.58l31.67,2.64,.4,.02,20.75,1.74Z"/>
      </g>
      <g id="FlashAICB_1_Layer_1_Clip_Group_0_0_Layer1_18_FILL" data-name="FlashAICB 1 Layer 1  Clip Group  0 0 Layer1 18 FILL">
        <path class="cls-1" d="M64.66,62l-.24,.83-14.95,52.13-2.5,8.7c-3.7-1.49-7.45-3.49-11.2-6.01-2.38-1.56-4.74-3.35-7.12-5.33-.17-.14-.35-.28-.52-.42-3.91-3.3-7.24-6.74-9.97-10.33-5.54-7.19-8.68-15-9.46-23.39-.57-6.06,.19-12.05,2.22-17.99,.28-.83,.59-1.67,.92-2.5l.38,.02,30.79,2.52,21.65,1.77Z"/>
      </g>
    </g>
  </g>
</svg>