<?xml version="1.0" encoding="UTF-8"?>
<svg id="Layer_2" data-name="Layer 2" xmlns="http://www.w3.org/2000/svg" viewBox="0 0 283.1 215">
  <defs>
    <style>
      .cls-1 {
        fill: #d69a63;
      }

      .cls-2 {
        fill: #3f2520;
      }
    </style>
  </defs>
  <g id="Layer_1-2" data-name="Layer 1">
    <g>
      <g>
        <path class="cls-2" d="M258.12,195.87c-2.46-3.98-6-6.32-10.54-7.01-1.82-.28-3.66-.35-5.48-.18-9.36,15.18-18.73,25.12-19.88,26.32,.17-5.97,.66-11.84,1.5-17.64,.35-2.46,.78-4.91,1.24-7.34,.64-5.81,1.29-11.63,1.93-17.46-5.19-6.3-8.51-16.14-11.87-30.74-3.27-14.2-1.25-29.1-.43-39.91-2.02,1.47-4.82,3.46-8.23,5.69-5.29,3.47-10.6,6.61-17.57,10.31-9.85,5.25-19.51,9.56-24.44,11.86-29.53,13.82-72.04,17.63-75.83,8.55-1.55-3.73,1.07-10.82,5.72-16.85-8.19,1.29-20.58,1.03-22.42,.99-13.6-.23-26.29-3.21-36.81-8.05-9.7,22.57-13.36,43.79-14.55,60.41-.2-.73-.38-1.47-.55-2.2-5.29-21.82-4.68-45.14,.83-66.94,7.16-28.4,22.6-54.23,44.07-70.89,60.59-47,165.11-17.73,203.5,41.59,5.77,8.92,10.05,18.53,12.45,28.66,7.19,30.27-2.77,63.35-22.65,90.83Z"/>
        <g id="Layer3_3_MEMBER_12_MEMBER_0_FILL" data-name="Layer3 3 MEMBER 12 MEMBER 0 FILL">
          <path class="cls-1" d="M242.1,188.68c-9.36,15.18-18.73,25.12-19.88,26.32,.17-5.97,.66-11.84,1.5-17.64,.15-.14,.32-.28,.49-.4,.77-.64,1.56-1.27,2.39-1.88,5.17-3.86,10.33-6,15.5-6.4Z"/>
        </g>
        <path class="cls-2" d="M245.94,182.16c-1.27,2.26-2.56,4.45-3.84,6.52-9.36,15.18-18.73,25.12-19.88,26.32,.66-6.01,1.32-12.03,1.99-18.04,.24-2.31,.51-4.62,.75-6.95,.64-5.81,1.29-11.63,1.93-17.46,1.58-14.35,3.15-28.7,4.73-43.07,.86-7.83,1.73-15.68,2.59-23.52-3.87-5.88-25.45-37.33-67.25-49.99-4.39-1.33-9-2.46-13.83-3.32-51.01-9.12-88.38,17.43-94.65,22.03-6.38,8.22-13.02,18.19-18.96,30.04-1.64,3.26-3.12,6.49-4.5,9.7-9.7,22.57-13.36,43.79-14.55,60.41-.34,4.54-.49,8.74-.52,12.53-3.32-4.82-31.57-47.31-14.51-94.27,.63-1.74,1.32-3.44,2.02-5.1,13.63-31.38,41.4-45.99,57.35-53.2,1.73-.78,3.32-1.48,4.74-2.1,61.51-26.84,119.91,3.15,129.13,8.08,17.64,9.43,47.71,25.55,59.32,59.58,10.28,30.13,.06,60.07-12.06,81.8Z"/>
      </g>
      <path class="cls-2" d="M247.33,182.03c-.47,.08-.93,.12-1.39,.14-6.37,.32-12.5-3.84-14.57-5.34-.92-.67-1.79-1.41-2.62-2.23-.66-.63-1.27-1.3-1.87-2.04-5.19-6.3-8.51-16.14-11.87-30.74-3.27-14.2-1.25-29.1-.43-39.91-2.02,1.47-4.82,3.46-8.23,5.69-5.29,3.47-10.6,6.61-17.57,10.31-9.85,5.25-19.51,9.56-24.44,11.86-29.53,13.82-72.04,17.63-75.83,8.55-1.55-3.73,1.07-10.82,5.72-16.85-8.19,1.29-20.58,1.03-22.42,.99-13.6-.23-26.29-3.21-36.81-8.05-3.67-1.68-7.08-3.6-10.18-5.71-1.44-.96-2.8-1.97-4.1-3.03-6.37-5.14-11-11.19-13.28-17.69-1.74-4.94-2.13-10.14-.87-15.42C11.66,51.11,46.2,28.59,95.85,13.52,126.59,4.18,147.66-3.41,175.05,1.58c40.27,7.34,77.55,37.53,93.26,74.81,3.61,8.57,6.09,17.52,7.19,26.65,4.13,34.24-10.33,76.15-28.17,78.98Z"/>
    </g>
  </g>
</svg>