<?xml version="1.0" encoding="UTF-8"?>
<svg id="Layer_2" data-name="Layer 2" xmlns="http://www.w3.org/2000/svg" viewBox="0 0 170 129.11">
  <defs>
    <style>
      .cls-1 {
        fill: #d69a63;
      }

      .cls-2 {
        fill: #3f2520;
      }
    </style>
  </defs>
  <g id="Layer_2-2" data-name="Layer 2">
    <g id="Layer_1-2" data-name="Layer 1-2">
      <g>
        <g>
          <path class="cls-2" d="M155,117.63c-1.48-2.39-3.6-3.8-6.33-4.21-1.09-.17-2.2-.21-3.29-.11-5.62,9.12-11.25,15.09-11.94,15.81,.1-3.59,.4-7.11,.9-10.59,.21-1.48,.47-2.95,.74-4.41,.38-3.49,.77-6.98,1.16-10.49-3.12-3.78-5.11-9.69-7.13-18.46-1.96-8.53-.75-17.48-.26-23.97-1.21,.88-2.89,2.08-4.94,3.42-3.18,2.08-6.37,3.97-10.55,6.19-5.92,3.15-11.72,5.74-14.68,7.12-17.73,8.3-43.26,10.59-45.54,5.13-.93-2.24,.64-6.5,3.43-10.12-4.92,.77-12.36,.62-13.46,.59-8.17-.14-15.79-1.93-22.11-4.83-5.83,13.55-8.02,26.3-8.74,36.28-.12-.44-.23-.88-.33-1.32-3.18-13.1-2.81-27.11,.5-40.2,4.3-17.05,13.57-32.57,26.46-42.57,36.39-28.22,99.15-10.65,122.21,24.98,3.46,5.36,6.04,11.13,7.48,17.21,4.32,18.18-1.66,38.04-13.6,54.55h0Z"/>
          <g id="Layer3_3_MEMBER_12_MEMBER_0_FILL" data-name="Layer3 3 MEMBER 12 MEMBER 0 FILL">
            <path class="cls-1" d="M145.38,113.31c-5.62,9.12-11.25,15.09-11.94,15.81,.1-3.59,.4-7.11,.9-10.59,.09-.08,.19-.17,.29-.24,.46-.38,.94-.76,1.44-1.13,3.1-2.32,6.2-3.6,9.31-3.84h0Z"/>
          </g>
          <path class="cls-2" d="M147.69,109.39c-.76,1.36-1.54,2.67-2.31,3.92-5.62,9.12-11.25,15.09-11.94,15.81,.4-3.61,.79-7.22,1.2-10.83,.14-1.39,.31-2.77,.45-4.17,.38-3.49,.77-6.98,1.16-10.49,.95-8.62,1.89-17.23,2.84-25.86,.52-4.7,1.04-9.42,1.56-14.12-2.32-3.53-15.28-22.42-40.39-30.02-2.64-.8-5.4-1.48-8.31-1.99-30.63-5.48-53.07,10.47-56.84,13.23-3.83,4.94-7.82,10.92-11.39,18.04-.98,1.96-1.87,3.9-2.7,5.83-5.83,13.55-8.02,26.3-8.74,36.28-.2,2.73-.29,5.25-.31,7.52-1.99-2.89-18.96-28.41-8.71-56.61,.38-1.04,.79-2.07,1.21-3.06,8.19-18.84,24.86-27.62,34.44-31.95,1.04-.47,1.99-.89,2.85-1.26,36.94-16.12,72.01,1.89,77.55,4.85,10.59,5.66,28.65,15.34,35.62,35.78,6.17,18.09,.04,36.07-7.24,49.12h0Z"/>
        </g>
        <path class="cls-2" d="M148.52,109.31c-.28,.05-.56,.07-.83,.08-3.83,.19-7.51-2.31-8.75-3.21-.55-.4-1.07-.85-1.57-1.34-.4-.38-.76-.78-1.12-1.23-3.12-3.78-5.11-9.69-7.13-18.46-1.96-8.53-.75-17.48-.26-23.97-1.21,.88-2.89,2.08-4.94,3.42-3.18,2.08-6.37,3.97-10.55,6.19-5.92,3.15-11.72,5.74-14.68,7.12-17.73,8.3-43.26,10.59-45.54,5.13-.93-2.24,.64-6.5,3.43-10.12-4.92,.77-12.36,.62-13.46,.59-8.17-.14-15.79-1.93-22.11-4.83-2.2-1.01-4.25-2.16-6.11-3.43-.86-.58-1.68-1.18-2.46-1.82-3.83-3.09-6.61-6.72-7.97-10.62-1.04-2.97-1.28-6.09-.52-9.26C7,30.69,27.74,17.17,57.56,8.12,76.02,2.51,88.67-2.05,105.12,.95c24.18,4.41,46.57,22.54,56,44.92,2.17,5.15,3.66,10.52,4.32,16,2.48,20.56-6.2,45.73-16.92,47.43h0Z"/>
      </g>
    </g>
  </g>
</svg>