<?xml version="1.0" encoding="UTF-8"?>
<svg id="Layer_2" data-name="Layer 2" xmlns="http://www.w3.org/2000/svg" viewBox="0 0 170 132.01">
  <defs>
    <style>
      .cls-1 {
        fill: #f9c698;
      }

      .cls-2 {
        fill: #441d02;
      }

      .cls-3 {
        fill: #592908;
      }
    </style>
  </defs>
  <g id="Layer_2-2" data-name="Layer 2">
    <g id="Layer_1-2" data-name="Layer 1-2">
      <g>
        <g id="Layer3_2_MEMBER_10_MEMBER_0_FILL" data-name="Layer3 2 MEMBER 10 MEMBER 0 FILL">
          <path class="cls-2" d="M161.93,98.93c-.47,3.63-1.23,7.66-2.33,12.05-.9,3.69-2.02,7.67-3.35,11.89-.31,1.31-.8,2.67-1.48,4.11-.24-.11-.5-.24-.76-.34-3.54-1.41-7.45-1.21-11.73,.61-2.91,1.25-5.38,2.82-7.45,4.77v-.06c.2-7.44,1.25-14.7,3.14-21.79,.67-2.51,1.25-4.75,1.73-6.66-9.57-6.16-16.41-12.98-20.5-20.45-1.01-1.83-1.98-3.9-2.9-6.24l-4.29,14.9c-1.08-.47-2.39-1.14-3.92-1.98-2.76-1.58-5.29-3.34-7.6-5.27-1.45-1.22-2.77-2.47-3.95-3.76-1.31,3.89-2.25,8.45-2.8,13.69-15.95-6.53-26.05-15.09-30.28-25.65-1.93-4.83-3.96-12.47-6.08-22.91-1.77,2.55-3.25,5.34-4.45,8.37-1.93,4.87-2.87,9.89-2.8,15.06,.12,6.9,1.89,13.34,5.32,19.32-9.42-3.43-17.3-8.87-23.66-16.33-.5-.58-.96-1.17-1.44-1.76l-1.56,5.43c-2.27-.94-4.56-2.17-6.85-3.71-.4,1.32-.9,2.62-1.49,3.88-1.26,2.68-2.89,5.11-4.89,7.3-.71,7.26-.99,13.72-.87,19.41-1.12-1.04-2.28-1.68-3.51-1.93-1.52-.36-2.95-.34-4.3,.04-1.01-3-1.46-6.47-1.38-10.39,.01-1.31,.1-2.67,.24-4.09,.87-8.69,2.66-16.72,5.37-24.07,3.51-9.57,8.6-18.04,15.24-25.38,.57-.61,1.14-1.23,1.72-1.83,1.81-1.86,3.67-3.58,5.57-5.17,1.27-1.06,1.28-1.06,.03,0h.01c7.8-6.53,16.42-10.89,25.98-13.08,4.79-1.11,9.8-1.65,15.04-1.66,16.33,0,30.81,2.74,43.45,8.25,3.49,1.5,6.86,3.24,10.07,5.18,5.32,3.19,10.03,6.83,14.1,10.88,6.65,6.59,11.66,14.29,15.04,23.11,4.56,11.99,6.08,24.07,4.53,36.29h.01Z"/>
        </g>
        <g id="Layer3_2_MEMBER_10_MEMBER_3_FILL" data-name="Layer3 2 MEMBER 10 MEMBER 3 FILL">
          <path class="cls-1" d="M141.53,95.08c-.14,1.33-.76,4.13-1.83,8.42-9.57-6.16-16.41-12.98-20.5-20.45-1.01-1.83-1.98-3.9-2.9-6.24l-4.29,14.9c-1.08-.47-2.39-1.14-3.92-1.98-2.76-1.58-5.29-3.34-7.6-5.27-1.45-1.22-2.77-2.47-3.95-3.76-1.31,3.89-2.25,8.45-2.8,13.69-15.95-6.53-26.05-15.09-30.28-25.65-1.93-4.83-3.96-12.47-6.08-22.91-1.77,2.55-3.25,5.34-4.45,8.37-1.93,4.87-2.87,9.89-2.8,15.06,.12,6.9,1.89,13.34,5.32,19.32-9.42-3.43-17.3-8.87-23.66-16.33-.5-.58-.96-1.17-1.44-1.76l-1.56,5.43c-2.27-.94-4.56-2.17-6.85-3.71-.4,1.32-.9,2.62-1.49,3.88-1.26,2.68-2.89,5.11-4.89,7.3,.04-.5,.09-.99,.14-1.49,.49-4.77,1.09-9.09,1.86-12.94,1.45-7.33,3.4-13.01,5.85-17.03,3.3-5.29,8.65-9.73,16.11-13.35,5.45-2.6,11.43-4.49,17.92-5.67,2.28-.42,4.64-.76,7.06-.99,9.69-.94,19.02-.34,27.98,1.83,6.9,1.68,13.13,4.14,18.65,7.45,2.41,1.44,4.7,3.04,6.85,4.79,7.15,5.82,12.96,13.01,17.43,21.58,4.97,9.52,7,18.69,6.09,27.53h.02Z"/>
        </g>
        <g id="Layer3_2_MEMBER_10_MEMBER_7_FILL" data-name="Layer3 2 MEMBER 10 MEMBER 7 FILL">
          <path class="cls-2" d="M122.88,53.9l-6.58,22.91-4.29,14.9c-1.08-.47-2.39-1.14-3.92-1.98-2.76-1.58-5.29-3.34-7.6-5.27-1.45-1.22-2.77-2.47-3.95-3.76-4.76-5.1-7.39-10.74-7.93-16.89-.37-4.18,.26-8.38,1.89-12.61l19.41,1.62h.23s12.73,1.07,12.73,1.07h0Z"/>
        </g>
        <g id="Layer3_2_MEMBER_10_MEMBER_8_FILL" data-name="Layer3 2 MEMBER 10 MEMBER 8 FILL">
          <path class="cls-2" d="M39.69,38.05l-.14,.51-9.17,31.92-1.56,5.43c-2.27-.94-4.56-2.17-6.85-3.71-1.46-.96-2.91-2.04-4.37-3.25-.12-.1-.23-.18-.34-.28-2.4-2.02-4.45-4.12-6.11-6.32-3.38-4.41-5.3-9.19-5.77-14.34-.33-3.84,.17-7.64,1.5-11.42,.13-.4,.27-.78,.42-1.18h.2s18.87,1.56,18.87,1.56c0,0,13.31,1.09,13.31,1.09Z"/>
        </g>
        <g id="Layer3_2_MEMBER_10_MEMBER_4_FILL" data-name="Layer3 2 MEMBER 10 MEMBER 4 FILL">
          <path class="cls-2" d="M166.06,97.72c-1.65,4.56-3.81,8.99-6.47,13.25-.4,.65-.81,1.3-1.23,1.93-5.26-1.93-10.68-4.57-16.29-7.93-.81-.49-1.6-.98-2.37-1.48-9.57-6.16-16.41-12.98-20.5-20.45-1.01-1.83-1.98-3.9-2.9-6.24-.78-1.93-1.53-4.02-2.26-6.29-1.87-5.82-3.18-11.71-3.89-17.68-.04-.28-.07-.55-.1-.84l-.13,.82-.31,1.95c-.38,2.2-.84,4.25-1.36,6.11-.6,2.17-1.63,4.21-3.09,6.09-.78,1.01-1.72,2.03-2.82,3.11-2.4,2.7-4.33,6.24-5.78,10.62-1.31,3.89-2.25,8.45-2.8,13.69-15.95-6.53-26.05-15.09-30.28-25.65-1.93-4.83-3.96-12.47-6.08-22.91-1.77,2.55-3.25,5.34-4.45,8.37-1.93,4.87-2.87,9.89-2.8,15.06,.12,6.9,1.89,13.34,5.32,19.32-9.42-3.43-17.3-8.87-23.66-16.33-.5-.58-.96-1.17-1.44-1.76-3.08-3.94-5.64-8.38-7.67-13.35,.47,2.36,.67,4.79,.57,7.26-.1,2.7-.53,5.31-1.31,7.81-.4,1.32-.9,2.62-1.49,3.88-1.26,2.68-2.89,5.11-4.89,7.3-1.04,1.15-2.17,2.23-3.43,3.24-2.01,1.63-4.21,3-6.55,4.11-.03-.07-.06-.14-.09-.21-1.98-4.46-3.43-9.11-4.35-13.93-1.52-7.75-1.58-15.42-.17-23.01,1.11-5.98,3.05-11.65,5.86-16.99,.2-.4,.4-.78,.63-1.17,1.85-3.38,4.06-6.63,6.61-9.74,3.82-4.67,8.31-8.88,13.45-12.61C36.72,6.35,47.33,2.23,59.35,.68c6.83-.9,15.47-.91,25.94-.04,8.48,.67,16.08,1.99,22.81,3.96,11.76,3.42,22.24,8.88,31.45,16.38,7.43,6.07,13.25,11.93,17.47,17.57,7.77,10.34,12.05,21.46,12.86,33.4,.57,8.66-.71,17.26-3.81,25.78Z"/>
        </g>
        <g id="FlashAICB_1_Layer_1_Clip_Group_1_0_Layer2_0_FILL" data-name="FlashAICB 1 Layer 1 Clip Group 1 0 Layer2 0 FILL">
          <path class="cls-3" d="M27.51,13.46c4.42-3.24,9.3-5.92,14.64-8.04,2.86,2.24,5.98,4.26,9.36,6.05,9.32,7.2,19.94,11.6,31.85,13.23,17.2,3.02,34.29,.7,51.27-6.96,1.68,1.21,3.3,2.44,4.85,3.7,3.9,3.18,7.07,5.98,9.52,8.41,4.44,4.41,8.18,9.02,11.22,13.82-4.51-1.68-9.35-2.87-14.53-3.6-19.06-3.35-37.95-.16-56.66,9.57-2.76-2.06-5.51-3.79-8.23-5.19-9.32-7.2-19.92-11.6-31.8-13.22-13.51-2.38-27.02-1.43-40.5,2.84,4.68-7.93,11.02-14.8,19.02-20.59h0Z"/>
        </g>
      </g>
    </g>
  </g>
</svg>