<?xml version="1.0" encoding="UTF-8"?>
<svg id="Layer_2" data-name="Layer 2" xmlns="http://www.w3.org/2000/svg" viewBox="0 0 170 131.98">
  <defs>
    <style>
      .cls-1 {
        fill: #1d1818;
      }

      .cls-2 {
        fill: #ff9477;
      }
    </style>
  </defs>
  <g id="Layer_2-2" data-name="Layer 2">
    <g id="Layer_1-2" data-name="Layer 1-2">
      <g>
        <g id="FlashAICB_1_Layer_1_Clip_Group_0_0_Layer1_10_FILL" data-name="FlashAICB 1 Layer 1 Clip Group 0 0 Layer1 10 FILL">
          <path class="cls-1" d="M161.87,98.89c-.46,3.72-1.25,7.76-2.3,12.13,0,.01-.01,.01-.01,.01-.9,3.69-2,7.63-3.33,11.78-.29,1.3-.8,2.68-1.49,4.13-.23-.13-.48-.25-.72-.35-3.57-1.42-7.47-1.22-11.71,.65-2.87,1.17-5.37,2.75-7.5,4.73v-.03c.19-7.32,1.23-14.59,3.14-21.77,.67-2.55,1.25-4.79,1.72-6.73-9.58-6.16-16.41-12.97-20.51-20.41-1-1.79-1.95-3.87-2.88-6.19l-4.25,14.84c-.56-.23-1.88-.88-3.92-1.93-2.81-1.66-5.35-3.43-7.64-5.29-1.43-1.2-2.75-2.44-3.92-3.72-1.29,3.88-2.22,8.42-2.79,13.63-16-6.56-26.08-15.11-30.28-25.63-2-5.1-4.01-12.73-6.06-22.92-1.77,2.56-3.26,5.35-4.5,8.35-1.9,4.85-2.82,9.87-2.78,15.07,.15,6.95,1.93,13.38,5.35,19.28-9.38-3.39-17.28-8.82-23.71-16.29-.48-.55-.94-1.12-1.39-1.69l-1.53,5.34c-2.27-.91-4.57-2.14-6.88-3.69-.39,1.32-.88,2.59-1.48,3.84-1.29,2.69-2.92,5.14-4.92,7.34-.65,7.28-.93,13.76-.84,19.42-1.13-1.06-2.3-1.72-3.53-2-1.52-.35-2.95-.32-4.28,.06-1-3-1.46-6.47-1.38-10.4,.01-1.3,.09-2.66,.23-4.07,.88-8.67,2.66-16.69,5.38-24.06,3.52-9.57,8.61-18.04,15.25-25.37,.55-.62,1.13-1.23,1.71-1.84,12.85-13.29,28.4-19.93,46.63-19.93,20.75,0,38.59,4.49,53.48,13.43,14,8.42,23.71,19.76,29.13,33.98,4.56,12,6.06,24.09,4.5,36.27h0Z"/>
        </g>
        <g id="FlashAICB_1_Layer_1_Clip_Group_0_0_Layer1_13_FILL" data-name="FlashAICB 1 Layer 1 Clip Group 0 0 Layer1 13 FILL">
          <path class="cls-2" d="M141.52,95.05c-.15,1.26-.76,4.05-1.85,8.41-9.58-6.16-16.41-12.97-20.51-20.41-1-1.79-1.95-3.87-2.88-6.19l-4.25,14.84c-.56-.23-1.88-.88-3.92-1.93-2.81-1.66-5.35-3.43-7.64-5.29-1.43-1.2-2.75-2.44-3.92-3.72-1.29,3.88-2.22,8.42-2.79,13.63-16-6.56-26.08-15.11-30.28-25.63-2-5.1-4.01-12.73-6.06-22.92-1.77,2.56-3.26,5.35-4.5,8.35-1.9,4.85-2.82,9.87-2.78,15.07,.15,6.95,1.93,13.38,5.35,19.28-9.38-3.39-17.28-8.82-23.71-16.29-.48-.55-.94-1.12-1.39-1.69l-1.53,5.34c-2.27-.91-4.57-2.14-6.88-3.69-.39,1.32-.88,2.59-1.48,3.84-1.29,2.69-2.92,5.14-4.92,7.34,.04-.49,.09-.98,.13-1.49,.49-4.78,1.13-9.09,1.9-12.95,1.45-7.34,3.39-13.01,5.82-17.03,3.24-5.24,8.61-9.68,16.14-13.35,7.32-3.49,15.66-5.69,24.98-6.64,9.53-1,18.86-.41,27.99,1.78,9.96,2.43,18.45,6.53,25.49,12.29,7.11,5.7,12.91,12.9,17.43,21.55,4.95,9.58,6.98,18.74,6.08,27.5h0Z"/>
        </g>
        <g id="FlashAICB_1_Layer_1_Clip_Group_0_0_Layer1_14_FILL" data-name="FlashAICB 1 Layer 1 Clip Group 0 0 Layer1 14 FILL">
          <path class="cls-1" d="M166.01,97.68c-1.58,4.54-3.73,8.99-6.44,13.35,0,.01-.01,.01-.01,.01-.37,.62-.78,1.25-1.18,1.85-5.29-1.9-10.71-4.54-16.29-7.92-.82-.51-1.63-1-2.42-1.52-9.58-6.16-16.41-12.97-20.51-20.41-1-1.79-1.95-3.87-2.88-6.19-.78-1.93-1.52-4.02-2.26-6.3-1.87-5.99-3.16-11.9-3.88-17.72-.04-.29-.09-.56-.12-.85l-.13,.84-.31,1.94c-.23,1.62-.68,3.68-1.34,6.15-.53,2-1.55,4.02-3.07,6.06-.53,.66-1.48,1.69-2.87,3.07-2.39,2.69-4.32,6.27-5.78,10.71-1.29,3.88-2.22,8.42-2.79,13.63-16-6.56-26.08-15.11-30.28-25.63-2-5.1-4.01-12.73-6.06-22.92-1.77,2.56-3.26,5.35-4.5,8.35-1.9,4.85-2.82,9.87-2.78,15.07,.15,6.95,1.93,13.38,5.35,19.28-9.38-3.39-17.28-8.82-23.71-16.29-.48-.55-.94-1.12-1.39-1.69-3.04-3.91-5.6-8.4-7.67-13.44,.46,2.14,.66,4.57,.56,7.28-.1,2.72-.52,5.33-1.3,7.81-.39,1.32-.88,2.59-1.48,3.84-1.29,2.69-2.92,5.14-4.92,7.34-1.03,1.14-2.15,2.22-3.37,3.23-2.14,1.71-4.33,3.07-6.57,4.07l-.09-.21c-2-4.5-3.44-9.13-4.33-13.92-1.53-7.72-1.61-15.37-.21-22.98,1.12-5.85,3.01-11.39,5.72-16.62,.26-.51,.52-1.01,.8-1.52,1.87-3.4,4.08-6.66,6.63-9.78,3.81-4.68,8.28-8.86,13.42-12.58C36.68,6.36,47.28,2.22,59.32,.64c6.86-.85,15.5-.85,25.92,0,8.28,.62,15.91,1.93,22.85,3.92,11.71,3.43,22.17,8.9,31.41,16.43,7.48,6.14,13.31,12,17.5,17.57,7.72,10.38,12,21.48,12.85,33.33,.58,8.71-.71,17.31-3.85,25.78h0Z"/>
        </g>
        <g id="FlashAICB_1_Layer_1_Clip_Group_0_0_Layer1_17_FILL" data-name="FlashAICB 1 Layer 1 Clip Group 0 0 Layer1 17 FILL">
          <path class="cls-1" d="M122.88,53.9l-6.6,22.94-4.25,14.84c-.56-.23-1.88-.88-3.92-1.93-2.81-1.66-5.35-3.43-7.64-5.29-1.43-1.2-2.75-2.44-3.92-3.72-4.76-5.14-7.4-10.79-7.93-16.92-.33-4.14,.29-8.35,1.85-12.63l19.44,1.62h.25s12.74,1.08,12.74,1.08h0Z"/>
        </g>
        <g id="FlashAICB_1_Layer_1_Clip_Group_0_0_Layer1_18_FILL" data-name="FlashAICB 1 Layer 1 Clip Group 0 0 Layer1 18 FILL">
          <path class="cls-1" d="M39.69,38.06l-.15,.51-9.18,32-1.53,5.34c-2.27-.91-4.57-2.14-6.88-3.69-1.46-.96-2.91-2.06-4.37-3.27-.1-.09-.21-.17-.32-.26-2.4-2.03-4.44-4.14-6.12-6.34-3.4-4.41-5.33-9.21-5.81-14.36-.35-3.72,.12-7.4,1.36-11.04,.17-.51,.36-1.03,.56-1.53h.23s18.9,1.56,18.9,1.56c0,0,13.29,1.09,13.29,1.09Z"/>
        </g>
      </g>
    </g>
  </g>
</svg>